<mxfile host="app.diagrams.net" modified="2020-05-29T15:50:57.976Z" agent="5.0 (Windows NT 10.0; Win64; x64) AppleWebKit/537.36 (KHTML, like Gecko) Chrome/81.0.4044.138 Safari/537.36 OPR/68.0.3618.125" etag="xJqjR77AFF9fiAIX4G-I" version="13.1.7" type="github">
  <diagram id="dGnfLBqPatdodJ2_fIo8" name="Page-1">
    <mxGraphModel dx="7088" dy="3819" grid="1" gridSize="10" guides="1" tooltips="1" connect="1" arrows="1" fold="1" page="1" pageScale="1" pageWidth="827" pageHeight="1169" math="0" shadow="0">
      <root>
        <mxCell id="0" />
        <mxCell id="1" parent="0" />
        <mxCell id="BgHJBI13iY1UevrT18Dg-17" value="IGenericService&lt;T&gt;" style="swimlane;fontStyle=0;childLayout=stackLayout;horizontal=1;startSize=26;fillColor=#ffe6cc;horizontalStack=0;resizeParent=1;resizeParentMax=0;resizeLast=0;collapsible=1;marginBottom=0;strokeColor=#d79b00;" parent="1" vertex="1">
          <mxGeometry x="344" y="310" width="140" height="78" as="geometry" />
        </mxCell>
        <mxCell id="BgHJBI13iY1UevrT18Dg-18" value="T GetEntity(int id)" style="text;strokeColor=none;fillColor=none;align=left;verticalAlign=top;spacingLeft=4;spacingRight=4;overflow=hidden;rotatable=0;points=[[0,0.5],[1,0.5]];portConstraint=eastwest;" parent="BgHJBI13iY1UevrT18Dg-17" vertex="1">
          <mxGeometry y="26" width="140" height="26" as="geometry" />
        </mxCell>
        <mxCell id="BgHJBI13iY1UevrT18Dg-19" value="IList&lt;T&gt; ListEntities()" style="text;strokeColor=#000000;fillColor=none;align=left;verticalAlign=top;spacingLeft=4;spacingRight=4;overflow=hidden;rotatable=0;points=[[0,0.5],[1,0.5]];portConstraint=eastwest;" parent="BgHJBI13iY1UevrT18Dg-17" vertex="1">
          <mxGeometry y="52" width="140" height="26" as="geometry" />
        </mxCell>
        <mxCell id="BgHJBI13iY1UevrT18Dg-67" style="edgeStyle=orthogonalEdgeStyle;rounded=0;orthogonalLoop=1;jettySize=auto;html=1;exitX=1;exitY=0.5;exitDx=0;exitDy=0;entryX=-0.007;entryY=-0.115;entryDx=0;entryDy=0;entryPerimeter=0;" parent="1" source="BgHJBI13iY1UevrT18Dg-22" target="BgHJBI13iY1UevrT18Dg-19" edge="1">
          <mxGeometry relative="1" as="geometry" />
        </mxCell>
        <mxCell id="BgHJBI13iY1UevrT18Dg-68" style="edgeStyle=orthogonalEdgeStyle;rounded=0;orthogonalLoop=1;jettySize=auto;html=1;exitX=0;exitY=0.5;exitDx=0;exitDy=0;entryX=0.971;entryY=0.077;entryDx=0;entryDy=0;entryPerimeter=0;" parent="1" source="BgHJBI13iY1UevrT18Dg-27" target="BgHJBI13iY1UevrT18Dg-19" edge="1">
          <mxGeometry relative="1" as="geometry">
            <mxPoint x="490" y="364" as="targetPoint" />
          </mxGeometry>
        </mxCell>
        <mxCell id="BgHJBI13iY1UevrT18Dg-69" style="edgeStyle=orthogonalEdgeStyle;rounded=0;orthogonalLoop=1;jettySize=auto;html=1;exitX=0.5;exitY=1;exitDx=0;exitDy=0;entryX=0.5;entryY=0;entryDx=0;entryDy=0;" parent="1" source="BgHJBI13iY1UevrT18Dg-26" target="BgHJBI13iY1UevrT18Dg-17" edge="1">
          <mxGeometry relative="1" as="geometry" />
        </mxCell>
        <mxCell id="Brwqg4Zs09OCB73X3CUI-101" style="edgeStyle=orthogonalEdgeStyle;rounded=0;orthogonalLoop=1;jettySize=auto;html=1;exitX=0;exitY=0.5;exitDx=0;exitDy=0;entryX=0.25;entryY=0;entryDx=0;entryDy=0;startArrow=none;startFill=0;" edge="1" parent="1" source="BgHJBI13iY1UevrT18Dg-57" target="Brwqg4Zs09OCB73X3CUI-80">
          <mxGeometry relative="1" as="geometry" />
        </mxCell>
        <mxCell id="BgHJBI13iY1UevrT18Dg-57" value="+Flower: FlowerDTOToFlower(FlowerDTO)" style="text;strokeColor=#000000;fillColor=none;align=left;verticalAlign=top;spacingLeft=4;spacingRight=4;overflow=hidden;rotatable=0;points=[[0,0.5],[1,0.5]];portConstraint=eastwest;" parent="1" vertex="1">
          <mxGeometry x="-230" y="526" width="240" height="32" as="geometry" />
        </mxCell>
        <mxCell id="BgHJBI13iY1UevrT18Dg-187" style="edgeStyle=orthogonalEdgeStyle;rounded=0;orthogonalLoop=1;jettySize=auto;html=1;exitX=1;exitY=0.5;exitDx=0;exitDy=0;entryX=0;entryY=0.5;entryDx=0;entryDy=0;startArrow=diamondThin;startFill=1;" parent="1" source="BgHJBI13iY1UevrT18Dg-88" target="BgHJBI13iY1UevrT18Dg-148" edge="1">
          <mxGeometry relative="1" as="geometry">
            <Array as="points">
              <mxPoint x="1000" y="443" />
              <mxPoint x="1000" y="560" />
              <mxPoint x="1470" y="560" />
              <mxPoint x="1470" y="769" />
              <mxPoint x="1530" y="769" />
              <mxPoint x="1530" y="675" />
            </Array>
          </mxGeometry>
        </mxCell>
        <mxCell id="BgHJBI13iY1UevrT18Dg-88" value="+IList &lt;Pot&gt; ListEntities()" style="text;strokeColor=#000000;fillColor=none;align=left;verticalAlign=top;spacingLeft=4;spacingRight=4;overflow=hidden;rotatable=0;points=[[0,0.5],[1,0.5]];portConstraint=eastwest;" parent="1" vertex="1">
          <mxGeometry x="750" y="430" width="210" height="26" as="geometry" />
        </mxCell>
        <mxCell id="BgHJBI13iY1UevrT18Dg-73" value="PotService" style="swimlane;fontStyle=0;childLayout=stackLayout;horizontal=1;startSize=26;fillColor=#dae8fc;horizontalStack=0;resizeParent=1;resizeParentMax=0;resizeLast=0;collapsible=1;marginBottom=0;strokeColor=#6c8ebf;" parent="1" vertex="1">
          <mxGeometry x="750" y="330" width="210" height="100" as="geometry" />
        </mxCell>
        <mxCell id="BgHJBI13iY1UevrT18Dg-74" value="-UnitOfWork: unitofwork" style="text;strokeColor=#000000;fillColor=none;align=left;verticalAlign=top;spacingLeft=4;spacingRight=4;overflow=hidden;rotatable=0;points=[[0,0.5],[1,0.5]];portConstraint=eastwest;" parent="BgHJBI13iY1UevrT18Dg-73" vertex="1">
          <mxGeometry y="26" width="210" height="26" as="geometry" />
        </mxCell>
        <mxCell id="BgHJBI13iY1UevrT18Dg-75" value="-PotMapper: mapper" style="text;strokeColor=#000000;fillColor=none;align=left;verticalAlign=top;spacingLeft=4;spacingRight=4;overflow=hidden;rotatable=0;points=[[0,0.5],[1,0.5]];portConstraint=eastwest;" parent="BgHJBI13iY1UevrT18Dg-73" vertex="1">
          <mxGeometry y="52" width="210" height="26" as="geometry" />
        </mxCell>
        <mxCell id="BgHJBI13iY1UevrT18Dg-76" value="+PotDTO: GetEntity(int id)&#xa;" style="text;strokeColor=#000000;fillColor=none;align=left;verticalAlign=top;spacingLeft=4;spacingRight=4;overflow=hidden;rotatable=0;points=[[0,0.5],[1,0.5]];portConstraint=eastwest;" parent="BgHJBI13iY1UevrT18Dg-73" vertex="1">
          <mxGeometry y="78" width="210" height="22" as="geometry" />
        </mxCell>
        <mxCell id="BgHJBI13iY1UevrT18Dg-190" style="edgeStyle=orthogonalEdgeStyle;rounded=0;orthogonalLoop=1;jettySize=auto;html=1;exitX=0.75;exitY=0;exitDx=0;exitDy=0;entryX=0.08;entryY=0.017;entryDx=0;entryDy=0;entryPerimeter=0;startArrow=diamondThin;startFill=1;" parent="1" source="BgHJBI13iY1UevrT18Dg-82" target="BgHJBI13iY1UevrT18Dg-147" edge="1">
          <mxGeometry relative="1" as="geometry">
            <Array as="points">
              <mxPoint x="512" y="-30" />
              <mxPoint x="1638" y="-30" />
              <mxPoint x="1638" y="580" />
              <mxPoint x="1627" y="580" />
            </Array>
          </mxGeometry>
        </mxCell>
        <mxCell id="BgHJBI13iY1UevrT18Dg-90" style="edgeStyle=orthogonalEdgeStyle;rounded=0;orthogonalLoop=1;jettySize=auto;html=1;exitX=1;exitY=0.5;exitDx=0;exitDy=0;entryX=1;entryY=0.25;entryDx=0;entryDy=0;dashed=1;" parent="1" source="BgHJBI13iY1UevrT18Dg-85" target="BgHJBI13iY1UevrT18Dg-26" edge="1">
          <mxGeometry relative="1" as="geometry" />
        </mxCell>
        <mxCell id="BgHJBI13iY1UevrT18Dg-91" style="edgeStyle=orthogonalEdgeStyle;rounded=0;orthogonalLoop=1;jettySize=auto;html=1;exitX=0;exitY=0.5;exitDx=0;exitDy=0;entryX=1;entryY=0.5;entryDx=0;entryDy=0;dashed=1;" parent="1" source="BgHJBI13iY1UevrT18Dg-74" target="BgHJBI13iY1UevrT18Dg-27" edge="1">
          <mxGeometry relative="1" as="geometry" />
        </mxCell>
        <mxCell id="BgHJBI13iY1UevrT18Dg-78" value="FlowerService" style="swimlane;fontStyle=0;childLayout=stackLayout;horizontal=1;startSize=26;fillColor=#dae8fc;horizontalStack=0;resizeParent=1;resizeParentMax=0;resizeLast=0;collapsible=1;marginBottom=0;strokeColor=#6c8ebf;" parent="1" vertex="1">
          <mxGeometry x="-190" y="230" width="210" height="100" as="geometry" />
        </mxCell>
        <mxCell id="BgHJBI13iY1UevrT18Dg-79" value="-UnitOfWork: unitofwork" style="text;strokeColor=#000000;fillColor=none;align=left;verticalAlign=top;spacingLeft=4;spacingRight=4;overflow=hidden;rotatable=0;points=[[0,0.5],[1,0.5]];portConstraint=eastwest;" parent="BgHJBI13iY1UevrT18Dg-78" vertex="1">
          <mxGeometry y="26" width="210" height="26" as="geometry" />
        </mxCell>
        <mxCell id="BgHJBI13iY1UevrT18Dg-80" value="-FlowerMapper: mapper" style="text;strokeColor=#000000;fillColor=none;align=left;verticalAlign=top;spacingLeft=4;spacingRight=4;overflow=hidden;rotatable=0;points=[[0,0.5],[1,0.5]];portConstraint=eastwest;" parent="BgHJBI13iY1UevrT18Dg-78" vertex="1">
          <mxGeometry y="52" width="210" height="26" as="geometry" />
        </mxCell>
        <mxCell id="BgHJBI13iY1UevrT18Dg-81" value="+FlowerDTO: GetEntity(id)" style="text;strokeColor=#000000;fillColor=none;align=left;verticalAlign=top;spacingLeft=4;spacingRight=4;overflow=hidden;rotatable=0;points=[[0,0.5],[1,0.5]];portConstraint=eastwest;" parent="BgHJBI13iY1UevrT18Dg-78" vertex="1">
          <mxGeometry y="78" width="210" height="22" as="geometry" />
        </mxCell>
        <mxCell id="BgHJBI13iY1UevrT18Dg-93" style="edgeStyle=orthogonalEdgeStyle;rounded=0;orthogonalLoop=1;jettySize=auto;html=1;exitX=1;exitY=0.5;exitDx=0;exitDy=0;entryX=0;entryY=0.75;entryDx=0;entryDy=0;dashed=1;" parent="1" source="BgHJBI13iY1UevrT18Dg-80" target="BgHJBI13iY1UevrT18Dg-22" edge="1">
          <mxGeometry relative="1" as="geometry" />
        </mxCell>
        <mxCell id="BgHJBI13iY1UevrT18Dg-95" style="edgeStyle=orthogonalEdgeStyle;rounded=0;orthogonalLoop=1;jettySize=auto;html=1;exitX=0.25;exitY=0;exitDx=0;exitDy=0;entryX=0;entryY=-0.2;entryDx=0;entryDy=0;entryPerimeter=0;startArrow=diamond;startFill=1;" parent="1" source="BgHJBI13iY1UevrT18Dg-54" target="UJbusFLus1GOqgtkPEYr-14" edge="1">
          <mxGeometry relative="1" as="geometry" />
        </mxCell>
        <mxCell id="BgHJBI13iY1UevrT18Dg-96" style="edgeStyle=orthogonalEdgeStyle;rounded=0;orthogonalLoop=1;jettySize=auto;html=1;exitX=1;exitY=0.5;exitDx=0;exitDy=0;entryX=0.75;entryY=0;entryDx=0;entryDy=0;startArrow=diamond;startFill=1;" parent="1" source="BgHJBI13iY1UevrT18Dg-62" target="BgHJBI13iY1UevrT18Dg-73" edge="1">
          <mxGeometry relative="1" as="geometry" />
        </mxCell>
        <mxCell id="BgHJBI13iY1UevrT18Dg-97" style="edgeStyle=orthogonalEdgeStyle;rounded=0;orthogonalLoop=1;jettySize=auto;html=1;exitX=1;exitY=0.5;exitDx=0;exitDy=0;entryX=0;entryY=0.5;entryDx=0;entryDy=0;startArrow=diamond;startFill=1;" parent="1" source="BgHJBI13iY1UevrT18Dg-65" target="BgHJBI13iY1UevrT18Dg-84" edge="1">
          <mxGeometry relative="1" as="geometry" />
        </mxCell>
        <mxCell id="BgHJBI13iY1UevrT18Dg-86" value="+void: Create (FlowerDTO flowerdto)" style="text;strokeColor=#000000;fillColor=none;align=left;verticalAlign=top;spacingLeft=4;spacingRight=4;overflow=hidden;rotatable=0;points=[[0,0.5],[1,0.5]];portConstraint=eastwest;" parent="1" vertex="1">
          <mxGeometry x="-190" y="356" width="210" height="20" as="geometry" />
        </mxCell>
        <mxCell id="BgHJBI13iY1UevrT18Dg-189" style="edgeStyle=orthogonalEdgeStyle;rounded=0;orthogonalLoop=1;jettySize=auto;html=1;exitX=1;exitY=0.5;exitDx=0;exitDy=0;entryX=0.009;entryY=1;entryDx=0;entryDy=0;entryPerimeter=0;startArrow=diamondThin;startFill=1;" parent="1" source="BgHJBI13iY1UevrT18Dg-98" target="BgHJBI13iY1UevrT18Dg-150" edge="1">
          <mxGeometry relative="1" as="geometry">
            <Array as="points">
              <mxPoint x="40" y="343" />
              <mxPoint x="40" y="570" />
              <mxPoint x="821" y="570" />
              <mxPoint x="821" y="850" />
              <mxPoint x="1580" y="850" />
              <mxPoint x="1580" y="840" />
              <mxPoint x="1550" y="840" />
              <mxPoint x="1550" y="830" />
              <mxPoint x="1570" y="830" />
              <mxPoint x="1570" y="736" />
            </Array>
          </mxGeometry>
        </mxCell>
        <mxCell id="BgHJBI13iY1UevrT18Dg-98" value="+IList &lt;Flower&gt; ListEntities()" style="text;strokeColor=#000000;fillColor=none;align=left;verticalAlign=top;spacingLeft=4;spacingRight=4;overflow=hidden;rotatable=0;points=[[0,0.5],[1,0.5]];portConstraint=eastwest;" parent="1" vertex="1">
          <mxGeometry x="-190" y="330" width="210" height="26" as="geometry" />
        </mxCell>
        <mxCell id="BgHJBI13iY1UevrT18Dg-157" style="edgeStyle=orthogonalEdgeStyle;rounded=0;orthogonalLoop=1;jettySize=auto;html=1;exitX=0.75;exitY=0;exitDx=0;exitDy=0;entryX=0.006;entryY=0.154;entryDx=0;entryDy=0;entryPerimeter=0;startArrow=none;startFill=0;" parent="1" source="BgHJBI13iY1UevrT18Dg-119" target="BgHJBI13iY1UevrT18Dg-102" edge="1">
          <mxGeometry relative="1" as="geometry" />
        </mxCell>
        <mxCell id="BgHJBI13iY1UevrT18Dg-156" style="edgeStyle=orthogonalEdgeStyle;rounded=0;orthogonalLoop=1;jettySize=auto;html=1;exitX=0;exitY=0.5;exitDx=0;exitDy=0;entryX=1;entryY=0.5;entryDx=0;entryDy=0;startArrow=none;startFill=0;" parent="1" source="BgHJBI13iY1UevrT18Dg-120" target="BgHJBI13iY1UevrT18Dg-102" edge="1">
          <mxGeometry relative="1" as="geometry" />
        </mxCell>
        <mxCell id="BgHJBI13iY1UevrT18Dg-155" style="edgeStyle=orthogonalEdgeStyle;rounded=0;orthogonalLoop=1;jettySize=auto;html=1;exitX=0;exitY=0.5;exitDx=0;exitDy=0;entryX=1;entryY=0.5;entryDx=0;entryDy=0;startArrow=none;startFill=0;" parent="1" source="BgHJBI13iY1UevrT18Dg-121" target="BgHJBI13iY1UevrT18Dg-100" edge="1">
          <mxGeometry relative="1" as="geometry" />
        </mxCell>
        <mxCell id="BgHJBI13iY1UevrT18Dg-121" value="IPotRepository" style="swimlane;fontStyle=0;childLayout=stackLayout;horizontal=1;startSize=26;fillColor=#ffe6cc;horizontalStack=0;resizeParent=1;resizeParentMax=0;resizeLast=0;collapsible=1;marginBottom=0;strokeColor=#d79b00;" parent="1" vertex="1">
          <mxGeometry x="1730" y="168" width="140" height="52" as="geometry" />
        </mxCell>
        <mxCell id="BgHJBI13iY1UevrT18Dg-140" value="+IList&lt;Flower&gt; ListEntities()" style="text;strokeColor=#000000;fillColor=none;align=left;verticalAlign=top;spacingLeft=4;spacingRight=4;overflow=hidden;rotatable=0;points=[[0,0.5],[1,0.5]];portConstraint=eastwest;" parent="1" vertex="1">
          <mxGeometry x="1680" y="536" width="210" height="22" as="geometry" />
        </mxCell>
        <mxCell id="BgHJBI13iY1UevrT18Dg-141" value="+void Create (Flower flower)" style="text;strokeColor=#000000;fillColor=none;align=left;verticalAlign=top;spacingLeft=4;spacingRight=4;overflow=hidden;rotatable=0;points=[[0,0.5],[1,0.5]];portConstraint=eastwest;" parent="1" vertex="1">
          <mxGeometry x="1680" y="560" width="210" height="22" as="geometry" />
        </mxCell>
        <mxCell id="BgHJBI13iY1UevrT18Dg-158" style="edgeStyle=orthogonalEdgeStyle;rounded=0;orthogonalLoop=1;jettySize=auto;html=1;exitX=0.5;exitY=0;exitDx=0;exitDy=0;entryX=0.5;entryY=1;entryDx=0;entryDy=0;startArrow=none;startFill=0;dashed=1;" parent="1" source="BgHJBI13iY1UevrT18Dg-123" target="BgHJBI13iY1UevrT18Dg-119" edge="1">
          <mxGeometry relative="1" as="geometry" />
        </mxCell>
        <mxCell id="BgHJBI13iY1UevrT18Dg-159" style="edgeStyle=orthogonalEdgeStyle;rounded=0;orthogonalLoop=1;jettySize=auto;html=1;exitX=0.5;exitY=0;exitDx=0;exitDy=0;dashed=1;startArrow=none;startFill=0;entryX=0.5;entryY=1;entryDx=0;entryDy=0;" parent="1" source="BgHJBI13iY1UevrT18Dg-136" edge="1" target="BgHJBI13iY1UevrT18Dg-120">
          <mxGeometry relative="1" as="geometry">
            <mxPoint x="1797.5714285714294" y="422" as="targetPoint" />
          </mxGeometry>
        </mxCell>
        <mxCell id="BgHJBI13iY1UevrT18Dg-160" style="edgeStyle=orthogonalEdgeStyle;rounded=0;orthogonalLoop=1;jettySize=auto;html=1;exitX=0.5;exitY=0;exitDx=0;exitDy=0;entryX=0.46;entryY=1;entryDx=0;entryDy=0;entryPerimeter=0;startArrow=diamondThin;startFill=1;" parent="1" source="BgHJBI13iY1UevrT18Dg-147" target="BgHJBI13iY1UevrT18Dg-141" edge="1">
          <mxGeometry relative="1" as="geometry" />
        </mxCell>
        <mxCell id="BgHJBI13iY1UevrT18Dg-181" style="edgeStyle=orthogonalEdgeStyle;rounded=0;orthogonalLoop=1;jettySize=auto;html=1;exitX=0;exitY=0.5;exitDx=0;exitDy=0;startArrow=diamondThin;startFill=1;entryX=1;entryY=0;entryDx=0;entryDy=0;" parent="1" source="BgHJBI13iY1UevrT18Dg-151" target="BgHJBI13iY1UevrT18Dg-164" edge="1">
          <mxGeometry relative="1" as="geometry">
            <Array as="points">
              <mxPoint x="1590" y="813" />
              <mxPoint x="1590" y="830" />
              <mxPoint x="1601" y="830" />
              <mxPoint x="1601" y="960" />
              <mxPoint x="1580" y="960" />
            </Array>
            <mxPoint x="1640" y="970" as="targetPoint" />
          </mxGeometry>
        </mxCell>
        <mxCell id="UJbusFLus1GOqgtkPEYr-5" style="edgeStyle=orthogonalEdgeStyle;rounded=0;orthogonalLoop=1;jettySize=auto;html=1;exitX=1;exitY=0.5;exitDx=0;exitDy=0;entryX=0.5;entryY=0;entryDx=0;entryDy=0;" parent="1" source="BgHJBI13iY1UevrT18Dg-151" target="UJbusFLus1GOqgtkPEYr-1" edge="1">
          <mxGeometry relative="1" as="geometry" />
        </mxCell>
        <mxCell id="BgHJBI13iY1UevrT18Dg-151" value="+PotRepository: Pots" style="text;strokeColor=#000000;fillColor=none;align=left;verticalAlign=top;spacingLeft=4;spacingRight=4;overflow=hidden;rotatable=0;points=[[0,0.5],[1,0.5]];portConstraint=eastwest;" parent="1" vertex="1">
          <mxGeometry x="1610" y="802" width="210" height="22" as="geometry" />
        </mxCell>
        <mxCell id="BgHJBI13iY1UevrT18Dg-152" style="edgeStyle=orthogonalEdgeStyle;rounded=0;orthogonalLoop=1;jettySize=auto;html=1;exitX=0.5;exitY=0;exitDx=0;exitDy=0;entryX=1;entryY=0.5;entryDx=0;entryDy=0;startArrow=none;startFill=0;dashed=1;" parent="1" source="BgHJBI13iY1UevrT18Dg-142" target="BgHJBI13iY1UevrT18Dg-121" edge="1">
          <mxGeometry relative="1" as="geometry" />
        </mxCell>
        <mxCell id="BgHJBI13iY1UevrT18Dg-142" value="PotRepository" style="swimlane;fontStyle=0;childLayout=stackLayout;horizontal=1;startSize=26;fillColor=#dae8fc;horizontalStack=0;resizeParent=1;resizeParentMax=0;resizeLast=0;collapsible=1;marginBottom=0;strokeColor=#6c8ebf;" parent="1" vertex="1">
          <mxGeometry x="1910" y="246" width="210" height="122" as="geometry" />
        </mxCell>
        <mxCell id="BgHJBI13iY1UevrT18Dg-143" value="-Context: context" style="text;strokeColor=#000000;fillColor=none;align=left;verticalAlign=top;spacingLeft=4;spacingRight=4;overflow=hidden;rotatable=0;points=[[0,0.5],[1,0.5]];portConstraint=eastwest;" parent="BgHJBI13iY1UevrT18Dg-142" vertex="1">
          <mxGeometry y="26" width="210" height="26" as="geometry" />
        </mxCell>
        <mxCell id="BgHJBI13iY1UevrT18Dg-144" value="+PotRepository (Context context)" style="text;strokeColor=#000000;fillColor=none;align=left;verticalAlign=top;spacingLeft=4;spacingRight=4;overflow=hidden;rotatable=0;points=[[0,0.5],[1,0.5]];portConstraint=eastwest;" parent="BgHJBI13iY1UevrT18Dg-142" vertex="1">
          <mxGeometry y="52" width="210" height="26" as="geometry" />
        </mxCell>
        <mxCell id="BgHJBI13iY1UevrT18Dg-145" value="+Pot: GetEntity (int id)" style="text;strokeColor=#000000;fillColor=none;align=left;verticalAlign=top;spacingLeft=4;spacingRight=4;overflow=hidden;rotatable=0;points=[[0,0.5],[1,0.5]];portConstraint=eastwest;" parent="BgHJBI13iY1UevrT18Dg-142" vertex="1">
          <mxGeometry y="78" width="210" height="22" as="geometry" />
        </mxCell>
        <mxCell id="UJbusFLus1GOqgtkPEYr-42" value="+Pot: GetEntityS(string id)" style="text;strokeColor=#000000;fillColor=none;align=left;verticalAlign=top;spacingLeft=4;spacingRight=4;overflow=hidden;rotatable=0;points=[[0,0.5],[1,0.5]];portConstraint=eastwest;" parent="BgHJBI13iY1UevrT18Dg-142" vertex="1">
          <mxGeometry y="100" width="210" height="22" as="geometry" />
        </mxCell>
        <mxCell id="BgHJBI13iY1UevrT18Dg-162" style="edgeStyle=orthogonalEdgeStyle;rounded=0;orthogonalLoop=1;jettySize=auto;html=1;exitX=1;exitY=0.5;exitDx=0;exitDy=0;entryX=0.352;entryY=1;entryDx=0;entryDy=0;entryPerimeter=0;startArrow=diamondThin;startFill=1;" parent="1" source="BgHJBI13iY1UevrT18Dg-149" target="BgHJBI13iY1UevrT18Dg-146" edge="1">
          <mxGeometry relative="1" as="geometry" />
        </mxCell>
        <mxCell id="BgHJBI13iY1UevrT18Dg-163" style="edgeStyle=orthogonalEdgeStyle;rounded=0;orthogonalLoop=1;jettySize=auto;html=1;exitX=0;exitY=0.5;exitDx=0;exitDy=0;entryX=0.995;entryY=-0.182;entryDx=0;entryDy=0;entryPerimeter=0;startArrow=diamondThin;startFill=1;" parent="1" source="BgHJBI13iY1UevrT18Dg-149" target="BgHJBI13iY1UevrT18Dg-126" edge="1">
          <mxGeometry relative="1" as="geometry">
            <Array as="points">
              <mxPoint x="1580" y="701" />
              <mxPoint x="1580" y="680" />
              <mxPoint x="1508" y="680" />
              <mxPoint x="1508" y="400" />
              <mxPoint x="1410" y="400" />
              <mxPoint x="1410" y="376" />
            </Array>
          </mxGeometry>
        </mxCell>
        <mxCell id="BgHJBI13iY1UevrT18Dg-179" style="edgeStyle=orthogonalEdgeStyle;rounded=0;orthogonalLoop=1;jettySize=auto;html=1;exitX=0.25;exitY=0;exitDx=0;exitDy=0;entryX=0.5;entryY=1;entryDx=0;entryDy=0;startArrow=diamondThin;startFill=0;" parent="1" source="BgHJBI13iY1UevrT18Dg-164" target="BgHJBI13iY1UevrT18Dg-171" edge="1">
          <mxGeometry relative="1" as="geometry" />
        </mxCell>
        <mxCell id="BgHJBI13iY1UevrT18Dg-54" value="FlowerMapper" style="swimlane;fontStyle=0;childLayout=stackLayout;horizontal=1;startSize=26;fillColor=#dae8fc;horizontalStack=0;resizeParent=1;resizeParentMax=0;resizeLast=0;collapsible=1;marginBottom=0;strokeColor=#6c8ebf;" parent="1" vertex="1">
          <mxGeometry x="-230" y="470" width="240" height="56" as="geometry" />
        </mxCell>
        <mxCell id="BgHJBI13iY1UevrT18Dg-55" value="" style="text;strokeColor=#000000;fillColor=none;align=left;verticalAlign=top;spacingLeft=4;spacingRight=4;overflow=hidden;rotatable=0;points=[[0,0.5],[1,0.5]];portConstraint=eastwest;" parent="BgHJBI13iY1UevrT18Dg-54" vertex="1">
          <mxGeometry y="26" width="240" height="4" as="geometry" />
        </mxCell>
        <mxCell id="BgHJBI13iY1UevrT18Dg-56" value="+FlowerDTO: FlowerToFlowerDTO(Flower)" style="text;strokeColor=none;fillColor=none;align=left;verticalAlign=top;spacingLeft=4;spacingRight=4;overflow=hidden;rotatable=0;points=[[0,0.5],[1,0.5]];portConstraint=eastwest;" parent="BgHJBI13iY1UevrT18Dg-54" vertex="1">
          <mxGeometry y="30" width="240" height="26" as="geometry" />
        </mxCell>
        <mxCell id="BgHJBI13iY1UevrT18Dg-22" value="IFlowerService" style="swimlane;fontStyle=0;childLayout=stackLayout;horizontal=1;startSize=26;fillColor=#ffe6cc;horizontalStack=0;resizeParent=1;resizeParentMax=0;resizeLast=0;collapsible=1;marginBottom=0;strokeColor=#d79b00;" parent="1" vertex="1">
          <mxGeometry x="70" y="284" width="195" height="46" as="geometry" />
        </mxCell>
        <mxCell id="BgHJBI13iY1UevrT18Dg-77" value="void: Create (FlowerDTO flowerdto)" style="text;html=1;align=center;verticalAlign=middle;resizable=0;points=[];autosize=1;" parent="BgHJBI13iY1UevrT18Dg-22" vertex="1">
          <mxGeometry y="26" width="195" height="20" as="geometry" />
        </mxCell>
        <mxCell id="dRxuZMbDR-7vqP8RKUdO-49" style="edgeStyle=orthogonalEdgeStyle;rounded=0;orthogonalLoop=1;jettySize=auto;html=1;exitX=0.75;exitY=0;exitDx=0;exitDy=0;entryX=0;entryY=0.818;entryDx=0;entryDy=0;entryPerimeter=0;startArrow=diamondThin;startFill=1;" parent="1" source="dRxuZMbDR-7vqP8RKUdO-15" target="dRxuZMbDR-7vqP8RKUdO-34" edge="1">
          <mxGeometry relative="1" as="geometry" />
        </mxCell>
        <mxCell id="dRxuZMbDR-7vqP8RKUdO-15" value="MainWindow.xaml" style="swimlane;fontStyle=0;childLayout=stackLayout;horizontal=1;startSize=26;fillColor=#dae8fc;horizontalStack=0;resizeParent=1;resizeParentMax=0;resizeLast=0;collapsible=1;marginBottom=0;strokeColor=#6c8ebf;" parent="1" vertex="1">
          <mxGeometry x="-1440" y="236" width="210" height="100" as="geometry" />
        </mxCell>
        <mxCell id="dRxuZMbDR-7vqP8RKUdO-16" value="+ComboBox: StandList" style="text;strokeColor=#000000;fillColor=none;align=left;verticalAlign=top;spacingLeft=4;spacingRight=4;overflow=hidden;rotatable=0;points=[[0,0.5],[1,0.5]];portConstraint=eastwest;" parent="dRxuZMbDR-7vqP8RKUdO-15" vertex="1">
          <mxGeometry y="26" width="210" height="26" as="geometry" />
        </mxCell>
        <mxCell id="dRxuZMbDR-7vqP8RKUdO-17" value="+ComboBox: FlowerList" style="text;strokeColor=#000000;fillColor=none;align=left;verticalAlign=top;spacingLeft=4;spacingRight=4;overflow=hidden;rotatable=0;points=[[0,0.5],[1,0.5]];portConstraint=eastwest;" parent="dRxuZMbDR-7vqP8RKUdO-15" vertex="1">
          <mxGeometry y="52" width="210" height="26" as="geometry" />
        </mxCell>
        <mxCell id="dRxuZMbDR-7vqP8RKUdO-18" value="+ComboBox: RoomList" style="text;strokeColor=#000000;fillColor=none;align=left;verticalAlign=top;spacingLeft=4;spacingRight=4;overflow=hidden;rotatable=0;points=[[0,0.5],[1,0.5]];portConstraint=eastwest;" parent="dRxuZMbDR-7vqP8RKUdO-15" vertex="1">
          <mxGeometry y="78" width="210" height="22" as="geometry" />
        </mxCell>
        <mxCell id="dRxuZMbDR-7vqP8RKUdO-20" value="TextBox: PriceTextBox" style="text;strokeColor=#000000;fillColor=none;align=left;verticalAlign=top;spacingLeft=4;spacingRight=4;overflow=hidden;rotatable=0;points=[[0,0.5],[1,0.5]];portConstraint=eastwest;" parent="1" vertex="1">
          <mxGeometry x="-1440" y="422" width="210" height="20" as="geometry" />
        </mxCell>
        <mxCell id="dRxuZMbDR-7vqP8RKUdO-21" value="TextBox: ConditionsTextBox" style="text;strokeColor=#000000;fillColor=none;align=left;verticalAlign=top;spacingLeft=4;spacingRight=4;overflow=hidden;rotatable=0;points=[[0,0.5],[1,0.5]];portConstraint=eastwest;" parent="1" vertex="1">
          <mxGeometry x="-1440" y="443" width="210" height="20" as="geometry" />
        </mxCell>
        <mxCell id="dRxuZMbDR-7vqP8RKUdO-61" style="edgeStyle=orthogonalEdgeStyle;rounded=0;orthogonalLoop=1;jettySize=auto;html=1;exitX=1;exitY=0.5;exitDx=0;exitDy=0;entryX=0;entryY=0.5;entryDx=0;entryDy=0;startArrow=diamond;startFill=1;" parent="1" source="dRxuZMbDR-7vqP8RKUdO-22" target="dRxuZMbDR-7vqP8RKUdO-25" edge="1">
          <mxGeometry relative="1" as="geometry">
            <Array as="points">
              <mxPoint x="-810" y="473" />
              <mxPoint x="-810" y="224" />
            </Array>
          </mxGeometry>
        </mxCell>
        <mxCell id="dRxuZMbDR-7vqP8RKUdO-22" value="TextBox: TemperatureTextBox" style="text;strokeColor=#000000;fillColor=none;align=left;verticalAlign=top;spacingLeft=4;spacingRight=4;overflow=hidden;rotatable=0;points=[[0,0.5],[1,0.5]];portConstraint=eastwest;" parent="1" vertex="1">
          <mxGeometry x="-1440" y="463" width="210" height="20" as="geometry" />
        </mxCell>
        <mxCell id="dRxuZMbDR-7vqP8RKUdO-56" style="edgeStyle=orthogonalEdgeStyle;rounded=0;orthogonalLoop=1;jettySize=auto;html=1;exitX=0;exitY=0.5;exitDx=0;exitDy=0;entryX=0.007;entryY=0.186;entryDx=0;entryDy=0;entryPerimeter=0;startArrow=diamond;startFill=1;" parent="1" source="dRxuZMbDR-7vqP8RKUdO-23" target="dRxuZMbDR-7vqP8RKUdO-11" edge="1">
          <mxGeometry relative="1" as="geometry" />
        </mxCell>
        <mxCell id="dRxuZMbDR-7vqP8RKUdO-23" value="+Button: AddFlower" style="text;strokeColor=#000000;fillColor=none;align=left;verticalAlign=top;spacingLeft=4;spacingRight=4;overflow=hidden;rotatable=0;points=[[0,0.5],[1,0.5]];portConstraint=eastwest;" parent="1" vertex="1">
          <mxGeometry x="-1440" y="484" width="210" height="24" as="geometry" />
        </mxCell>
        <mxCell id="dRxuZMbDR-7vqP8RKUdO-54" style="edgeStyle=orthogonalEdgeStyle;rounded=0;orthogonalLoop=1;jettySize=auto;html=1;exitX=0.75;exitY=0;exitDx=0;exitDy=0;entryX=0.25;entryY=0;entryDx=0;entryDy=0;startArrow=diamondThin;startFill=1;" parent="1" source="dRxuZMbDR-7vqP8RKUdO-31" target="BgHJBI13iY1UevrT18Dg-73" edge="1">
          <mxGeometry relative="1" as="geometry" />
        </mxCell>
        <mxCell id="Brwqg4Zs09OCB73X3CUI-203" style="edgeStyle=orthogonalEdgeStyle;rounded=0;orthogonalLoop=1;jettySize=auto;html=1;exitX=0.5;exitY=0;exitDx=0;exitDy=0;entryX=0;entryY=0.5;entryDx=0;entryDy=0;startArrow=diamondThin;startFill=1;" edge="1" parent="1" source="dRxuZMbDR-7vqP8RKUdO-31" target="Brwqg4Zs09OCB73X3CUI-125">
          <mxGeometry relative="1" as="geometry" />
        </mxCell>
        <mxCell id="Brwqg4Zs09OCB73X3CUI-205" style="edgeStyle=orthogonalEdgeStyle;rounded=0;orthogonalLoop=1;jettySize=auto;html=1;exitX=0.25;exitY=0;exitDx=0;exitDy=0;entryX=-0.01;entryY=1.225;entryDx=0;entryDy=0;entryPerimeter=0;startArrow=diamondThin;startFill=1;" edge="1" parent="1" source="dRxuZMbDR-7vqP8RKUdO-31" target="Brwqg4Zs09OCB73X3CUI-110">
          <mxGeometry relative="1" as="geometry" />
        </mxCell>
        <mxCell id="dRxuZMbDR-7vqP8RKUdO-31" value="Collections" style="swimlane;fontStyle=0;childLayout=stackLayout;horizontal=1;startSize=26;fillColor=#dae8fc;horizontalStack=0;resizeParent=1;resizeParentMax=0;resizeLast=0;collapsible=1;marginBottom=0;strokeColor=#6c8ebf;" parent="1" vertex="1">
          <mxGeometry x="-1140" y="-53" width="320" height="100" as="geometry" />
        </mxCell>
        <mxCell id="dRxuZMbDR-7vqP8RKUdO-32" value="+FlowerDTO: SelectedFlower" style="text;strokeColor=#000000;fillColor=none;align=left;verticalAlign=top;spacingLeft=4;spacingRight=4;overflow=hidden;rotatable=0;points=[[0,0.5],[1,0.5]];portConstraint=eastwest;" parent="dRxuZMbDR-7vqP8RKUdO-31" vertex="1">
          <mxGeometry y="26" width="320" height="26" as="geometry" />
        </mxCell>
        <mxCell id="dRxuZMbDR-7vqP8RKUdO-33" value="+FetrilizerDTO: SelectedFertilizer" style="text;strokeColor=#000000;fillColor=none;align=left;verticalAlign=top;spacingLeft=4;spacingRight=4;overflow=hidden;rotatable=0;points=[[0,0.5],[1,0.5]];portConstraint=eastwest;" parent="dRxuZMbDR-7vqP8RKUdO-31" vertex="1">
          <mxGeometry y="52" width="320" height="26" as="geometry" />
        </mxCell>
        <mxCell id="dRxuZMbDR-7vqP8RKUdO-34" value="+PotDTO: SelectedPot" style="text;strokeColor=#000000;fillColor=none;align=left;verticalAlign=top;spacingLeft=4;spacingRight=4;overflow=hidden;rotatable=0;points=[[0,0.5],[1,0.5]];portConstraint=eastwest;" parent="dRxuZMbDR-7vqP8RKUdO-31" vertex="1">
          <mxGeometry y="78" width="320" height="22" as="geometry" />
        </mxCell>
        <mxCell id="Brwqg4Zs09OCB73X3CUI-193" style="edgeStyle=orthogonalEdgeStyle;rounded=0;orthogonalLoop=1;jettySize=auto;html=1;exitX=0;exitY=0.5;exitDx=0;exitDy=0;entryX=0.343;entryY=0.027;entryDx=0;entryDy=0;entryPerimeter=0;startArrow=diamondThin;startFill=0;" edge="1" parent="1" source="dRxuZMbDR-7vqP8RKUdO-35" target="Brwqg4Zs09OCB73X3CUI-188">
          <mxGeometry relative="1" as="geometry" />
        </mxCell>
        <mxCell id="dRxuZMbDR-7vqP8RKUdO-35" value="+void: OnPropertyChanged" style="text;strokeColor=#000000;fillColor=none;align=left;verticalAlign=top;spacingLeft=4;spacingRight=4;overflow=hidden;rotatable=0;points=[[0,0.5],[1,0.5]];portConstraint=eastwest;" parent="1" vertex="1">
          <mxGeometry x="-1140" y="171" width="320" height="20" as="geometry" />
        </mxCell>
        <mxCell id="dRxuZMbDR-7vqP8RKUdO-36" value="+ObservableCollection&lt;FertilizerDTO&gt; (ListEntities)" style="text;strokeColor=#000000;fillColor=none;align=left;verticalAlign=top;spacingLeft=4;spacingRight=4;overflow=hidden;rotatable=0;points=[[0,0.5],[1,0.5]];portConstraint=eastwest;" parent="1" vertex="1">
          <mxGeometry x="-1140" y="69" width="320" height="22" as="geometry" />
        </mxCell>
        <mxCell id="Brwqg4Zs09OCB73X3CUI-196" style="edgeStyle=orthogonalEdgeStyle;rounded=0;orthogonalLoop=1;jettySize=auto;html=1;exitX=0;exitY=0.5;exitDx=0;exitDy=0;entryX=0.25;entryY=0;entryDx=0;entryDy=0;startArrow=diamondThin;startFill=0;" edge="1" parent="1" source="dRxuZMbDR-7vqP8RKUdO-37" target="Brwqg4Zs09OCB73X3CUI-182">
          <mxGeometry relative="1" as="geometry">
            <Array as="points">
              <mxPoint x="-1520" y="101" />
              <mxPoint x="-1520" y="1232" />
            </Array>
          </mxGeometry>
        </mxCell>
        <mxCell id="dRxuZMbDR-7vqP8RKUdO-37" value="+ObservableCollection&lt;PotDTO&gt; (ListEntities)" style="text;strokeColor=#000000;fillColor=none;align=left;verticalAlign=top;spacingLeft=4;spacingRight=4;overflow=hidden;rotatable=0;points=[[0,0.5],[1,0.5]];portConstraint=eastwest;" parent="1" vertex="1">
          <mxGeometry x="-1140" y="91" width="320" height="20" as="geometry" />
        </mxCell>
        <mxCell id="dRxuZMbDR-7vqP8RKUdO-40" value="+ObservableCollection&lt;FlowerDTO&gt; (ListEntities)" style="text;strokeColor=#000000;fillColor=none;align=left;verticalAlign=top;spacingLeft=4;spacingRight=4;overflow=hidden;rotatable=0;points=[[0,0.5],[1,0.5]];portConstraint=eastwest;" parent="1" vertex="1">
          <mxGeometry x="-1140" y="47" width="320" height="22" as="geometry" />
        </mxCell>
        <mxCell id="dRxuZMbDR-7vqP8RKUdO-52" style="edgeStyle=orthogonalEdgeStyle;rounded=0;orthogonalLoop=1;jettySize=auto;html=1;exitX=1;exitY=0.5;exitDx=0;exitDy=0;entryX=0.25;entryY=0;entryDx=0;entryDy=0;startArrow=diamondThin;startFill=1;" parent="1" source="dRxuZMbDR-7vqP8RKUdO-33" target="BgHJBI13iY1UevrT18Dg-78" edge="1">
          <mxGeometry relative="1" as="geometry">
            <Array as="points">
              <mxPoint x="-138" y="12" />
            </Array>
          </mxGeometry>
        </mxCell>
        <mxCell id="dRxuZMbDR-7vqP8RKUdO-53" style="edgeStyle=orthogonalEdgeStyle;rounded=0;orthogonalLoop=1;jettySize=auto;html=1;exitX=1;exitY=0.5;exitDx=0;exitDy=0;entryX=0.5;entryY=0;entryDx=0;entryDy=0;startArrow=diamondThin;startFill=1;" parent="1" source="dRxuZMbDR-7vqP8RKUdO-34" target="BgHJBI13iY1UevrT18Dg-82" edge="1">
          <mxGeometry relative="1" as="geometry" />
        </mxCell>
        <mxCell id="BgHJBI13iY1UevrT18Dg-59" value="PotMapper" style="swimlane;fontStyle=0;childLayout=stackLayout;horizontal=1;startSize=26;fillColor=#dae8fc;horizontalStack=0;resizeParent=1;resizeParentMax=0;resizeLast=0;collapsible=1;marginBottom=0;strokeColor=#6c8ebf;" parent="1" vertex="1">
          <mxGeometry x="827" y="175" width="300" height="84" as="geometry" />
        </mxCell>
        <mxCell id="BgHJBI13iY1UevrT18Dg-61" value="+PotDTO: PotToPotDTO(Pot)" style="text;strokeColor=none;fillColor=none;align=left;verticalAlign=top;spacingLeft=4;spacingRight=4;overflow=hidden;rotatable=0;points=[[0,0.5],[1,0.5]];portConstraint=eastwest;" parent="BgHJBI13iY1UevrT18Dg-59" vertex="1">
          <mxGeometry y="26" width="300" height="26" as="geometry" />
        </mxCell>
        <mxCell id="BgHJBI13iY1UevrT18Dg-62" value="+Pot: PotDTOToPot(PotDTO)" style="text;strokeColor=#000000;fillColor=none;align=left;verticalAlign=top;spacingLeft=4;spacingRight=4;overflow=hidden;rotatable=0;points=[[0,0.5],[1,0.5]];portConstraint=eastwest;" parent="BgHJBI13iY1UevrT18Dg-59" vertex="1">
          <mxGeometry y="52" width="300" height="32" as="geometry" />
        </mxCell>
        <mxCell id="dRxuZMbDR-7vqP8RKUdO-24" value="Standart" style="swimlane;fontStyle=0;childLayout=stackLayout;horizontal=1;startSize=26;fillColor=#dae8fc;horizontalStack=0;resizeParent=1;resizeParentMax=0;resizeLast=0;collapsible=1;marginBottom=0;strokeColor=#6c8ebf;" parent="1" vertex="1">
          <mxGeometry x="-610" y="185" width="290" height="140" as="geometry" />
        </mxCell>
        <mxCell id="dRxuZMbDR-7vqP8RKUdO-25" value="+Standart()" style="text;strokeColor=#000000;fillColor=none;align=left;verticalAlign=top;spacingLeft=4;spacingRight=4;overflow=hidden;rotatable=0;points=[[0,0.5],[1,0.5]];portConstraint=eastwest;" parent="dRxuZMbDR-7vqP8RKUdO-24" vertex="1">
          <mxGeometry y="26" width="290" height="26" as="geometry" />
        </mxCell>
        <mxCell id="dRxuZMbDR-7vqP8RKUdO-26" value="+Collections collections" style="text;strokeColor=#000000;fillColor=none;align=left;verticalAlign=top;spacingLeft=4;spacingRight=4;overflow=hidden;rotatable=0;points=[[0,0.5],[1,0.5]];portConstraint=eastwest;" parent="dRxuZMbDR-7vqP8RKUdO-24" vertex="1">
          <mxGeometry y="52" width="290" height="26" as="geometry" />
        </mxCell>
        <mxCell id="dRxuZMbDR-7vqP8RKUdO-27" value="+ObservableCollection&lt;FlowerDTO&gt;" style="text;strokeColor=#000000;fillColor=none;align=left;verticalAlign=top;spacingLeft=4;spacingRight=4;overflow=hidden;rotatable=0;points=[[0,0.5],[1,0.5]];portConstraint=eastwest;" parent="dRxuZMbDR-7vqP8RKUdO-24" vertex="1">
          <mxGeometry y="78" width="290" height="22" as="geometry" />
        </mxCell>
        <mxCell id="dRxuZMbDR-7vqP8RKUdO-28" value="+ObservableCollection&lt;PotDTO&gt;" style="text;strokeColor=#000000;fillColor=none;align=left;verticalAlign=top;spacingLeft=4;spacingRight=4;overflow=hidden;rotatable=0;points=[[0,0.5],[1,0.5]];portConstraint=eastwest;" parent="dRxuZMbDR-7vqP8RKUdO-24" vertex="1">
          <mxGeometry y="100" width="290" height="20" as="geometry" />
        </mxCell>
        <mxCell id="dRxuZMbDR-7vqP8RKUdO-29" value="+ObservableCollection&lt;FertilizerDTO&gt;" style="text;strokeColor=#000000;fillColor=none;align=left;verticalAlign=top;spacingLeft=4;spacingRight=4;overflow=hidden;rotatable=0;points=[[0,0.5],[1,0.5]];portConstraint=eastwest;" parent="dRxuZMbDR-7vqP8RKUdO-24" vertex="1">
          <mxGeometry y="120" width="290" height="20" as="geometry" />
        </mxCell>
        <mxCell id="74qAZf5gXoMtDkKRA9CK-5" value="Presentation layer" style="text;html=1;align=center;verticalAlign=middle;resizable=0;points=[];autosize=1;" parent="1" vertex="1">
          <mxGeometry x="-1000" y="-400" width="110" height="20" as="geometry" />
        </mxCell>
        <mxCell id="2qN70uRyVt3pZ1MPOuo7-1" value="void Create (T obj)" style="text;align=left;verticalAlign=top;spacingLeft=4;spacingRight=4;overflow=hidden;rotatable=0;points=[[0,0.5],[1,0.5]];portConstraint=eastwest;strokeColor=#000000;" parent="1" vertex="1">
          <mxGeometry x="1430" y="306" width="160" height="26" as="geometry" />
        </mxCell>
        <mxCell id="UJbusFLus1GOqgtkPEYr-6" value="void Update (T obj)" style="text;strokeColor=#000000;fillColor=none;align=left;verticalAlign=top;spacingLeft=4;spacingRight=4;overflow=hidden;rotatable=0;points=[[0,0.5],[1,0.5]];portConstraint=eastwest;" parent="1" vertex="1">
          <mxGeometry x="1430" y="330" width="160" height="26" as="geometry" />
        </mxCell>
        <mxCell id="UJbusFLus1GOqgtkPEYr-7" value="void Delete (T obj)" style="text;strokeColor=#000000;fillColor=none;align=left;verticalAlign=top;spacingLeft=4;spacingRight=4;overflow=hidden;rotatable=0;points=[[0,0.5],[1,0.5]];portConstraint=eastwest;" parent="1" vertex="1">
          <mxGeometry x="1430" y="354" width="160" height="26" as="geometry" />
        </mxCell>
        <mxCell id="UJbusFLus1GOqgtkPEYr-8" value="void Create (T obj)" style="text;strokeColor=#000000;fillColor=none;align=left;verticalAlign=top;spacingLeft=4;spacingRight=4;overflow=hidden;rotatable=0;points=[[0,0.5],[1,0.5]];portConstraint=eastwest;" parent="1" vertex="1">
          <mxGeometry x="344" y="388" width="140" height="26" as="geometry" />
        </mxCell>
        <mxCell id="UJbusFLus1GOqgtkPEYr-9" value="void Update (T obj)" style="text;strokeColor=#000000;fillColor=none;align=left;verticalAlign=top;spacingLeft=4;spacingRight=4;overflow=hidden;rotatable=0;points=[[0,0.5],[1,0.5]];portConstraint=eastwest;" parent="1" vertex="1">
          <mxGeometry x="344" y="415" width="140" height="26" as="geometry" />
        </mxCell>
        <mxCell id="UJbusFLus1GOqgtkPEYr-10" value="void Delete (int id)" style="text;strokeColor=#000000;fillColor=none;align=left;verticalAlign=top;spacingLeft=4;spacingRight=4;overflow=hidden;rotatable=0;points=[[0,0.5],[1,0.5]];portConstraint=eastwest;" parent="1" vertex="1">
          <mxGeometry x="344" y="440" width="140" height="26" as="geometry" />
        </mxCell>
        <mxCell id="UJbusFLus1GOqgtkPEYr-12" value="T Read()" style="text;strokeColor=#000000;fillColor=none;align=left;verticalAlign=top;spacingLeft=4;spacingRight=4;overflow=hidden;rotatable=0;points=[[0,0.5],[1,0.5]];portConstraint=eastwest;" parent="1" vertex="1">
          <mxGeometry x="344" y="466" width="140" height="26" as="geometry" />
        </mxCell>
        <mxCell id="UJbusFLus1GOqgtkPEYr-13" value="+void: Update (FlowerDTO obj)" style="text;strokeColor=#000000;fillColor=none;align=left;verticalAlign=top;spacingLeft=4;spacingRight=4;overflow=hidden;rotatable=0;points=[[0,0.5],[1,0.5]];portConstraint=eastwest;" parent="1" vertex="1">
          <mxGeometry x="-190" y="376" width="210" height="20" as="geometry" />
        </mxCell>
        <mxCell id="UJbusFLus1GOqgtkPEYr-14" value="+void: Delete (int id)" style="text;strokeColor=#000000;fillColor=none;align=left;verticalAlign=top;spacingLeft=4;spacingRight=4;overflow=hidden;rotatable=0;points=[[0,0.5],[1,0.5]];portConstraint=eastwest;" parent="1" vertex="1">
          <mxGeometry x="-190" y="396" width="210" height="20" as="geometry" />
        </mxCell>
        <mxCell id="UJbusFLus1GOqgtkPEYr-15" value="+FlowerDTO: Read()" style="text;strokeColor=#000000;fillColor=none;align=left;verticalAlign=top;spacingLeft=4;spacingRight=4;overflow=hidden;rotatable=0;points=[[0,0.5],[1,0.5]];portConstraint=eastwest;" parent="1" vertex="1">
          <mxGeometry x="-190" y="416" width="210" height="20" as="geometry" />
        </mxCell>
        <mxCell id="UJbusFLus1GOqgtkPEYr-16" value="+void: Create (PotDTO obj)" style="text;strokeColor=#000000;fillColor=none;align=left;verticalAlign=top;spacingLeft=4;spacingRight=4;overflow=hidden;rotatable=0;points=[[0,0.5],[1,0.5]];portConstraint=eastwest;" parent="1" vertex="1">
          <mxGeometry x="750" y="456" width="210" height="26" as="geometry" />
        </mxCell>
        <mxCell id="UJbusFLus1GOqgtkPEYr-17" value="+void: Update (PotDTO obj)" style="text;strokeColor=#000000;fillColor=none;align=left;verticalAlign=top;spacingLeft=4;spacingRight=4;overflow=hidden;rotatable=0;points=[[0,0.5],[1,0.5]];portConstraint=eastwest;" parent="1" vertex="1">
          <mxGeometry x="750" y="482" width="210" height="26" as="geometry" />
        </mxCell>
        <mxCell id="UJbusFLus1GOqgtkPEYr-18" value="+PotDTO: Read()" style="text;strokeColor=#000000;fillColor=none;align=left;verticalAlign=top;spacingLeft=4;spacingRight=4;overflow=hidden;rotatable=0;points=[[0,0.5],[1,0.5]];portConstraint=eastwest;" parent="1" vertex="1">
          <mxGeometry x="750" y="508" width="210" height="26" as="geometry" />
        </mxCell>
        <mxCell id="UJbusFLus1GOqgtkPEYr-19" value="+void: Delete (int id)" style="text;strokeColor=#000000;fillColor=none;align=left;verticalAlign=top;spacingLeft=4;spacingRight=4;overflow=hidden;rotatable=0;points=[[0,0.5],[1,0.5]];portConstraint=eastwest;" parent="1" vertex="1">
          <mxGeometry x="750" y="534" width="210" height="26" as="geometry" />
        </mxCell>
        <mxCell id="UJbusFLus1GOqgtkPEYr-22" value="+void: Create (GroundDTO obj)" style="text;strokeColor=#000000;fillColor=none;align=left;verticalAlign=top;spacingLeft=4;spacingRight=4;overflow=hidden;rotatable=0;points=[[0,0.5],[1,0.5]];portConstraint=eastwest;" parent="1" vertex="1">
          <mxGeometry x="355" y="91" width="210" height="26" as="geometry" />
        </mxCell>
        <mxCell id="BgHJBI13iY1UevrT18Dg-82" value="GroundService" style="swimlane;fontStyle=0;childLayout=stackLayout;horizontal=1;startSize=26;fillColor=#dae8fc;horizontalStack=0;resizeParent=1;resizeParentMax=0;resizeLast=0;collapsible=1;marginBottom=0;strokeColor=#6c8ebf;" parent="1" vertex="1">
          <mxGeometry x="355" y="-9" width="210" height="100" as="geometry" />
        </mxCell>
        <mxCell id="BgHJBI13iY1UevrT18Dg-83" value="-UnitOfWork: unitofwork" style="text;strokeColor=#000000;fillColor=none;align=left;verticalAlign=top;spacingLeft=4;spacingRight=4;overflow=hidden;rotatable=0;points=[[0,0.5],[1,0.5]];portConstraint=eastwest;" parent="BgHJBI13iY1UevrT18Dg-82" vertex="1">
          <mxGeometry y="26" width="210" height="26" as="geometry" />
        </mxCell>
        <mxCell id="BgHJBI13iY1UevrT18Dg-84" value="-GroundMapper: mapper" style="text;strokeColor=#000000;fillColor=none;align=left;verticalAlign=top;spacingLeft=4;spacingRight=4;overflow=hidden;rotatable=0;points=[[0,0.5],[1,0.5]];portConstraint=eastwest;" parent="BgHJBI13iY1UevrT18Dg-82" vertex="1">
          <mxGeometry y="52" width="210" height="26" as="geometry" />
        </mxCell>
        <mxCell id="BgHJBI13iY1UevrT18Dg-85" value="+GroundDTO: GetEntity(int id)" style="text;strokeColor=#000000;fillColor=none;align=left;verticalAlign=top;spacingLeft=4;spacingRight=4;overflow=hidden;rotatable=0;points=[[0,0.5],[1,0.5]];portConstraint=eastwest;" parent="BgHJBI13iY1UevrT18Dg-82" vertex="1">
          <mxGeometry y="78" width="210" height="22" as="geometry" />
        </mxCell>
        <mxCell id="UJbusFLus1GOqgtkPEYr-23" value="+void: Update (GroundDTO obj)" style="text;strokeColor=#000000;fillColor=none;align=left;verticalAlign=top;spacingLeft=4;spacingRight=4;overflow=hidden;rotatable=0;points=[[0,0.5],[1,0.5]];portConstraint=eastwest;" parent="1" vertex="1">
          <mxGeometry x="355" y="117" width="210" height="26" as="geometry" />
        </mxCell>
        <mxCell id="UJbusFLus1GOqgtkPEYr-24" value="+void: Delete (int id)" style="text;strokeColor=#000000;fillColor=none;align=left;verticalAlign=top;spacingLeft=4;spacingRight=4;overflow=hidden;rotatable=0;points=[[0,0.5],[1,0.5]];portConstraint=eastwest;" parent="1" vertex="1">
          <mxGeometry x="355" y="142" width="210" height="26" as="geometry" />
        </mxCell>
        <mxCell id="UJbusFLus1GOqgtkPEYr-25" value="+GroundDTO: Read()" style="text;strokeColor=#000000;fillColor=none;align=left;verticalAlign=top;spacingLeft=4;spacingRight=4;overflow=hidden;rotatable=0;points=[[0,0.5],[1,0.5]];portConstraint=eastwest;" parent="1" vertex="1">
          <mxGeometry x="355" y="168" width="210" height="26" as="geometry" />
        </mxCell>
        <mxCell id="BgHJBI13iY1UevrT18Dg-26" value="IGroundService" style="swimlane;fontStyle=0;childLayout=stackLayout;horizontal=1;startSize=26;fillColor=#ffe6cc;horizontalStack=0;resizeParent=1;resizeParentMax=0;resizeLast=0;collapsible=1;marginBottom=0;strokeColor=#d79b00;" parent="1" vertex="1">
          <mxGeometry x="350" y="220" width="140" height="52" as="geometry" />
        </mxCell>
        <mxCell id="UJbusFLus1GOqgtkPEYr-26" value="T GetEntityS(string id)" style="text;strokeColor=#000000;fillColor=none;align=left;verticalAlign=top;spacingLeft=4;spacingRight=4;overflow=hidden;rotatable=0;points=[[0,0.5],[1,0.5]];portConstraint=eastwest;" parent="1" vertex="1">
          <mxGeometry x="1430" y="280" width="160" height="26" as="geometry" />
        </mxCell>
        <mxCell id="BgHJBI13iY1UevrT18Dg-99" value="IGenericRepository&lt;T&gt;" style="swimlane;fontStyle=1;align=center;verticalAlign=top;childLayout=stackLayout;horizontal=1;startSize=26;horizontalStack=0;resizeParent=1;resizeParentMax=0;resizeLast=0;collapsible=1;marginBottom=0;strokeColor=#d79b00;fillColor=#ffe6cc;" parent="1" vertex="1">
          <mxGeometry x="1430" y="194" width="160" height="86" as="geometry" />
        </mxCell>
        <mxCell id="BgHJBI13iY1UevrT18Dg-100" value="T GetEntity(int id)" style="text;strokeColor=none;fillColor=none;align=left;verticalAlign=top;spacingLeft=4;spacingRight=4;overflow=hidden;rotatable=0;points=[[0,0.5],[1,0.5]];portConstraint=eastwest;" parent="BgHJBI13iY1UevrT18Dg-99" vertex="1">
          <mxGeometry y="26" width="160" height="26" as="geometry" />
        </mxCell>
        <mxCell id="BgHJBI13iY1UevrT18Dg-101" value="" style="line;strokeWidth=1;fillColor=none;align=left;verticalAlign=middle;spacingTop=-1;spacingLeft=3;spacingRight=3;rotatable=0;labelPosition=right;points=[];portConstraint=eastwest;" parent="BgHJBI13iY1UevrT18Dg-99" vertex="1">
          <mxGeometry y="52" width="160" height="8" as="geometry" />
        </mxCell>
        <mxCell id="BgHJBI13iY1UevrT18Dg-102" value="IList&lt;T&gt; ListEntities()" style="text;strokeColor=none;fillColor=none;align=left;verticalAlign=top;spacingLeft=4;spacingRight=4;overflow=hidden;rotatable=0;points=[[0,0.5],[1,0.5]];portConstraint=eastwest;" parent="BgHJBI13iY1UevrT18Dg-99" vertex="1">
          <mxGeometry y="60" width="160" height="26" as="geometry" />
        </mxCell>
        <mxCell id="BgHJBI13iY1UevrT18Dg-119" value="IFertilizerRepository" style="swimlane;fontStyle=0;childLayout=stackLayout;horizontal=1;startSize=26;fillColor=#ffe6cc;horizontalStack=0;resizeParent=1;resizeParentMax=0;resizeLast=0;collapsible=1;marginBottom=0;strokeColor=#d79b00;" parent="1" vertex="1">
          <mxGeometry x="1220" y="168" width="140" height="52" as="geometry" />
        </mxCell>
        <mxCell id="UJbusFLus1GOqgtkPEYr-27" value="+void: Update (Fertilizer obj)" style="text;strokeColor=#000000;fillColor=none;align=left;verticalAlign=top;spacingLeft=4;spacingRight=4;overflow=hidden;rotatable=0;points=[[0,0.5],[1,0.5]];portConstraint=eastwest;" parent="1" vertex="1">
          <mxGeometry x="1195" y="424" width="210" height="22" as="geometry" />
        </mxCell>
        <mxCell id="UJbusFLus1GOqgtkPEYr-28" value="+void: Delete (Fertilizer obj)" style="text;strokeColor=#000000;fillColor=none;align=left;verticalAlign=top;spacingLeft=4;spacingRight=4;overflow=hidden;rotatable=0;points=[[0,0.5],[1,0.5]];portConstraint=eastwest;" parent="1" vertex="1">
          <mxGeometry x="1195" y="447" width="210" height="22" as="geometry" />
        </mxCell>
        <mxCell id="UJbusFLus1GOqgtkPEYr-29" value="+void: Create (Fertilizer obj)" style="text;strokeColor=#000000;fillColor=none;align=left;verticalAlign=top;spacingLeft=4;spacingRight=4;overflow=hidden;rotatable=0;points=[[0,0.5],[1,0.5]];portConstraint=eastwest;" parent="1" vertex="1">
          <mxGeometry x="1195" y="470" width="210" height="22" as="geometry" />
        </mxCell>
        <mxCell id="UJbusFLus1GOqgtkPEYr-31" value="+Fertilizer: GetEntityS(string id)" style="text;strokeColor=#000000;fillColor=none;align=left;verticalAlign=top;spacingLeft=4;spacingRight=4;overflow=hidden;rotatable=0;points=[[0,0.5],[1,0.5]];portConstraint=eastwest;" parent="1" vertex="1">
          <mxGeometry x="1195" y="492" width="210" height="22" as="geometry" />
        </mxCell>
        <mxCell id="UJbusFLus1GOqgtkPEYr-34" value="+Flower: GetEntityS(string id)" style="text;strokeColor=#000000;fillColor=none;align=left;verticalAlign=top;spacingLeft=4;spacingRight=4;overflow=hidden;rotatable=0;points=[[0,0.5],[1,0.5]];portConstraint=eastwest;" parent="1" vertex="1">
          <mxGeometry x="1680" y="470" width="210" height="22" as="geometry" />
        </mxCell>
        <mxCell id="UJbusFLus1GOqgtkPEYr-35" value="+void: Update (Flower obj)" style="text;strokeColor=#000000;fillColor=none;align=left;verticalAlign=top;spacingLeft=4;spacingRight=4;overflow=hidden;rotatable=0;points=[[0,0.5],[1,0.5]];portConstraint=eastwest;" parent="1" vertex="1">
          <mxGeometry x="1680" y="492" width="210" height="22" as="geometry" />
        </mxCell>
        <mxCell id="UJbusFLus1GOqgtkPEYr-36" value="+void: Delete (Flower id)" style="text;strokeColor=#000000;fillColor=none;align=left;verticalAlign=top;spacingLeft=4;spacingRight=4;overflow=hidden;rotatable=0;points=[[0,0.5],[1,0.5]];portConstraint=eastwest;" parent="1" vertex="1">
          <mxGeometry x="1680" y="514" width="210" height="22" as="geometry" />
        </mxCell>
        <mxCell id="BgHJBI13iY1UevrT18Dg-146" value="+IList&lt;Pot&gt; ListEntities()" style="text;strokeColor=#000000;fillColor=none;align=left;verticalAlign=top;spacingLeft=4;spacingRight=4;overflow=hidden;rotatable=0;points=[[0,0.5],[1,0.5]];portConstraint=eastwest;" parent="1" vertex="1">
          <mxGeometry x="1910" y="436" width="210" height="22" as="geometry" />
        </mxCell>
        <mxCell id="UJbusFLus1GOqgtkPEYr-43" value="+void: Update (Pot obj)" style="text;strokeColor=#000000;fillColor=none;align=left;verticalAlign=top;spacingLeft=4;spacingRight=4;overflow=hidden;rotatable=0;points=[[0,0.5],[1,0.5]];portConstraint=eastwest;" parent="1" vertex="1">
          <mxGeometry x="1910" y="369" width="210" height="22" as="geometry" />
        </mxCell>
        <mxCell id="UJbusFLus1GOqgtkPEYr-44" value="+void: Delete (Pot obj)" style="text;strokeColor=#000000;fillColor=none;align=left;verticalAlign=top;spacingLeft=4;spacingRight=4;overflow=hidden;rotatable=0;points=[[0,0.5],[1,0.5]];portConstraint=eastwest;" parent="1" vertex="1">
          <mxGeometry x="1910" y="392" width="210" height="22" as="geometry" />
        </mxCell>
        <mxCell id="UJbusFLus1GOqgtkPEYr-45" value="+void Create (Pot obj)" style="text;strokeColor=#000000;fillColor=none;align=left;verticalAlign=top;spacingLeft=4;spacingRight=4;overflow=hidden;rotatable=0;points=[[0,0.5],[1,0.5]];portConstraint=eastwest;" parent="1" vertex="1">
          <mxGeometry x="1910" y="414" width="210" height="22" as="geometry" />
        </mxCell>
        <mxCell id="UJbusFLus1GOqgtkPEYr-46" value="+void: Dispose()" style="text;strokeColor=#000000;fillColor=none;align=left;verticalAlign=top;spacingLeft=4;spacingRight=4;overflow=hidden;rotatable=0;points=[[0,0.5],[1,0.5]];portConstraint=eastwest;" parent="1" vertex="1">
          <mxGeometry x="1610" y="824" width="210" height="22" as="geometry" />
        </mxCell>
        <mxCell id="AatYgc2grRFvg_7ifBeQ-1" value="+Button: Check" style="text;strokeColor=#000000;fillColor=none;align=left;verticalAlign=top;spacingLeft=4;spacingRight=4;overflow=hidden;rotatable=0;points=[[0,0.5],[1,0.5]];portConstraint=eastwest;" parent="1" vertex="1">
          <mxGeometry x="-1440" y="508" width="210" height="24" as="geometry" />
        </mxCell>
        <mxCell id="Brwqg4Zs09OCB73X3CUI-14" style="edgeStyle=orthogonalEdgeStyle;rounded=0;orthogonalLoop=1;jettySize=auto;html=1;exitX=1;exitY=0.5;exitDx=0;exitDy=0;entryX=0;entryY=0.5;entryDx=0;entryDy=0;startArrow=diamondThin;startFill=0;" edge="1" parent="1" source="Brwqg4Zs09OCB73X3CUI-1" target="BgHJBI13iY1UevrT18Dg-169">
          <mxGeometry relative="1" as="geometry" />
        </mxCell>
        <mxCell id="Brwqg4Zs09OCB73X3CUI-1" value="+DbSet&lt;Room&gt;: Rooms" style="text;strokeColor=#000000;fillColor=none;align=left;verticalAlign=top;spacingLeft=4;spacingRight=4;overflow=hidden;rotatable=0;points=[[0,0.5],[1,0.5]];portConstraint=eastwest;" vertex="1" parent="1">
          <mxGeometry x="1370" y="1062" width="210" height="22" as="geometry" />
        </mxCell>
        <mxCell id="Brwqg4Zs09OCB73X3CUI-13" style="edgeStyle=orthogonalEdgeStyle;rounded=0;orthogonalLoop=1;jettySize=auto;html=1;exitX=1;exitY=0.5;exitDx=0;exitDy=0;startArrow=diamondThin;startFill=0;" edge="1" parent="1" source="Brwqg4Zs09OCB73X3CUI-2" target="Brwqg4Zs09OCB73X3CUI-3">
          <mxGeometry relative="1" as="geometry" />
        </mxCell>
        <mxCell id="Brwqg4Zs09OCB73X3CUI-2" value="+DbSet&lt;Ground&gt;: Grounds" style="text;strokeColor=#000000;fillColor=none;align=left;verticalAlign=top;spacingLeft=4;spacingRight=4;overflow=hidden;rotatable=0;points=[[0,0.5],[1,0.5]];portConstraint=eastwest;" vertex="1" parent="1">
          <mxGeometry x="1370" y="1108" width="210" height="22" as="geometry" />
        </mxCell>
        <mxCell id="Brwqg4Zs09OCB73X3CUI-10" style="edgeStyle=orthogonalEdgeStyle;rounded=0;orthogonalLoop=1;jettySize=auto;html=1;exitX=0;exitY=0.5;exitDx=0;exitDy=0;entryX=0.434;entryY=-0.029;entryDx=0;entryDy=0;entryPerimeter=0;startArrow=diamondThin;startFill=0;" edge="1" parent="1" source="BgHJBI13iY1UevrT18Dg-167" target="BgHJBI13iY1UevrT18Dg-175">
          <mxGeometry relative="1" as="geometry" />
        </mxCell>
        <mxCell id="Brwqg4Zs09OCB73X3CUI-7" value="Room" style="swimlane;fontStyle=1;align=center;verticalAlign=top;childLayout=stackLayout;horizontal=1;startSize=26;horizontalStack=0;resizeParent=1;resizeParentMax=0;resizeLast=0;collapsible=1;marginBottom=0;fillColor=#dae8fc;strokeColor=#6c8ebf;" vertex="1" parent="1">
          <mxGeometry x="1902.5" y="1028" width="160" height="80" as="geometry" />
        </mxCell>
        <mxCell id="Brwqg4Zs09OCB73X3CUI-8" value="+string: Name&#xa;+int: Size&#xa;+string: Conditions" style="text;strokeColor=none;fillColor=none;align=left;verticalAlign=top;spacingLeft=4;spacingRight=4;overflow=hidden;rotatable=0;points=[[0,0.5],[1,0.5]];portConstraint=eastwest;" vertex="1" parent="Brwqg4Zs09OCB73X3CUI-7">
          <mxGeometry y="26" width="160" height="54" as="geometry" />
        </mxCell>
        <mxCell id="Brwqg4Zs09OCB73X3CUI-9" value="" style="line;strokeWidth=1;fillColor=none;align=left;verticalAlign=middle;spacingTop=-1;spacingLeft=3;spacingRight=3;rotatable=0;labelPosition=right;points=[];portConstraint=eastwest;" vertex="1" parent="Brwqg4Zs09OCB73X3CUI-7">
          <mxGeometry y="80" width="160" as="geometry" />
        </mxCell>
        <mxCell id="BgHJBI13iY1UevrT18Dg-171" value="Stand" style="swimlane;fontStyle=1;align=center;verticalAlign=top;childLayout=stackLayout;horizontal=1;startSize=26;horizontalStack=0;resizeParent=1;resizeParentMax=0;resizeLast=0;collapsible=1;marginBottom=0;fillColor=#dae8fc;strokeColor=#6c8ebf;" parent="1" vertex="1">
          <mxGeometry x="1220" y="636" width="160" height="70" as="geometry" />
        </mxCell>
        <mxCell id="BgHJBI13iY1UevrT18Dg-172" value="+string: Name&#xa;+int: Size" style="text;strokeColor=none;fillColor=none;align=left;verticalAlign=top;spacingLeft=4;spacingRight=4;overflow=hidden;rotatable=0;points=[[0,0.5],[1,0.5]];portConstraint=eastwest;" parent="BgHJBI13iY1UevrT18Dg-171" vertex="1">
          <mxGeometry y="26" width="160" height="44" as="geometry" />
        </mxCell>
        <mxCell id="BgHJBI13iY1UevrT18Dg-173" value="" style="line;strokeWidth=1;fillColor=none;align=left;verticalAlign=middle;spacingTop=-1;spacingLeft=3;spacingRight=3;rotatable=0;labelPosition=right;points=[];portConstraint=eastwest;" parent="BgHJBI13iY1UevrT18Dg-171" vertex="1">
          <mxGeometry y="70" width="160" as="geometry" />
        </mxCell>
        <mxCell id="BgHJBI13iY1UevrT18Dg-120" value="IFlowerRepository" style="swimlane;fontStyle=0;childLayout=stackLayout;horizontal=1;startSize=26;fillColor=#ffe6cc;horizontalStack=0;resizeParent=1;resizeParentMax=0;resizeLast=0;collapsible=1;marginBottom=0;strokeColor=#d79b00;" parent="1" vertex="1">
          <mxGeometry x="1725" y="284" width="145" height="56" as="geometry" />
        </mxCell>
        <mxCell id="BgHJBI13iY1UevrT18Dg-136" value="FlowerRepository" style="swimlane;fontStyle=0;childLayout=stackLayout;horizontal=1;startSize=26;fillColor=#dae8fc;horizontalStack=0;resizeParent=1;resizeParentMax=0;resizeLast=0;collapsible=1;marginBottom=0;strokeColor=#6c8ebf;" parent="1" vertex="1">
          <mxGeometry x="1680" y="369" width="210" height="100" as="geometry" />
        </mxCell>
        <mxCell id="BgHJBI13iY1UevrT18Dg-137" value="-Context: context" style="text;strokeColor=#000000;fillColor=none;align=left;verticalAlign=top;spacingLeft=4;spacingRight=4;overflow=hidden;rotatable=0;points=[[0,0.5],[1,0.5]];portConstraint=eastwest;" parent="BgHJBI13iY1UevrT18Dg-136" vertex="1">
          <mxGeometry y="26" width="210" height="26" as="geometry" />
        </mxCell>
        <mxCell id="BgHJBI13iY1UevrT18Dg-138" value="+FlowerRepository (Context context)" style="text;strokeColor=#000000;fillColor=none;align=left;verticalAlign=top;spacingLeft=4;spacingRight=4;overflow=hidden;rotatable=0;points=[[0,0.5],[1,0.5]];portConstraint=eastwest;" parent="BgHJBI13iY1UevrT18Dg-136" vertex="1">
          <mxGeometry y="52" width="210" height="26" as="geometry" />
        </mxCell>
        <mxCell id="BgHJBI13iY1UevrT18Dg-139" value="+Flower: GetEntity (int id)" style="text;strokeColor=#000000;fillColor=none;align=left;verticalAlign=top;spacingLeft=4;spacingRight=4;overflow=hidden;rotatable=0;points=[[0,0.5],[1,0.5]];portConstraint=eastwest;" parent="BgHJBI13iY1UevrT18Dg-136" vertex="1">
          <mxGeometry y="78" width="210" height="22" as="geometry" />
        </mxCell>
        <mxCell id="Brwqg4Zs09OCB73X3CUI-16" value="Fertilizer" style="swimlane;fontStyle=1;align=center;verticalAlign=top;childLayout=stackLayout;horizontal=1;startSize=26;horizontalStack=0;resizeParent=1;resizeParentMax=0;resizeLast=0;collapsible=1;marginBottom=0;fillColor=#dae8fc;strokeColor=#6c8ebf;" vertex="1" parent="1">
          <mxGeometry x="1110" y="1062" width="160" height="98" as="geometry" />
        </mxCell>
        <mxCell id="Brwqg4Zs09OCB73X3CUI-17" value="+string: Name&#xa;+int: Size&#xa;+Date: ExpirationDate" style="text;strokeColor=none;fillColor=none;align=left;verticalAlign=top;spacingLeft=4;spacingRight=4;overflow=hidden;rotatable=0;points=[[0,0.5],[1,0.5]];portConstraint=eastwest;" vertex="1" parent="Brwqg4Zs09OCB73X3CUI-16">
          <mxGeometry y="26" width="160" height="64" as="geometry" />
        </mxCell>
        <mxCell id="Brwqg4Zs09OCB73X3CUI-18" value="" style="line;strokeWidth=1;fillColor=none;align=left;verticalAlign=middle;spacingTop=-1;spacingLeft=3;spacingRight=3;rotatable=0;labelPosition=right;points=[];portConstraint=eastwest;" vertex="1" parent="Brwqg4Zs09OCB73X3CUI-16">
          <mxGeometry y="90" width="160" height="8" as="geometry" />
        </mxCell>
        <mxCell id="Brwqg4Zs09OCB73X3CUI-19" style="edgeStyle=orthogonalEdgeStyle;rounded=0;orthogonalLoop=1;jettySize=auto;html=1;exitX=0;exitY=0.5;exitDx=0;exitDy=0;entryX=0.75;entryY=0;entryDx=0;entryDy=0;startArrow=diamondThin;startFill=0;" edge="1" parent="1" source="BgHJBI13iY1UevrT18Dg-166" target="Brwqg4Zs09OCB73X3CUI-16">
          <mxGeometry relative="1" as="geometry" />
        </mxCell>
        <mxCell id="UJbusFLus1GOqgtkPEYr-1" value="IUnitOfWork" style="swimlane;fontStyle=1;align=center;verticalAlign=top;childLayout=stackLayout;horizontal=1;startSize=26;horizontalStack=0;resizeParent=1;resizeParentMax=0;resizeLast=0;collapsible=1;marginBottom=0;fillColor=#dae8fc;strokeColor=#6c8ebf;" parent="1" vertex="1">
          <mxGeometry x="2210" y="1010" width="160" height="90" as="geometry" />
        </mxCell>
        <mxCell id="UJbusFLus1GOqgtkPEYr-3" value="" style="line;strokeWidth=1;fillColor=none;align=left;verticalAlign=middle;spacingTop=-1;spacingLeft=3;spacingRight=3;rotatable=0;labelPosition=right;points=[];portConstraint=eastwest;" parent="UJbusFLus1GOqgtkPEYr-1" vertex="1">
          <mxGeometry y="26" width="160" height="64" as="geometry" />
        </mxCell>
        <mxCell id="Brwqg4Zs09OCB73X3CUI-56" value="RoomRepository" style="swimlane;fontStyle=0;childLayout=stackLayout;horizontal=1;startSize=26;fillColor=#dae8fc;horizontalStack=0;resizeParent=1;resizeParentMax=0;resizeLast=0;collapsible=1;marginBottom=0;strokeColor=#6c8ebf;" vertex="1" parent="1">
          <mxGeometry x="1300" y="-490" width="210" height="144" as="geometry" />
        </mxCell>
        <mxCell id="Brwqg4Zs09OCB73X3CUI-57" value="-Context: context" style="text;strokeColor=#000000;fillColor=none;align=left;verticalAlign=top;spacingLeft=4;spacingRight=4;overflow=hidden;rotatable=0;points=[[0,0.5],[1,0.5]];portConstraint=eastwest;" vertex="1" parent="Brwqg4Zs09OCB73X3CUI-56">
          <mxGeometry y="26" width="210" height="26" as="geometry" />
        </mxCell>
        <mxCell id="Brwqg4Zs09OCB73X3CUI-58" value="+RoomRepository (Context context)" style="text;strokeColor=#000000;fillColor=none;align=left;verticalAlign=top;spacingLeft=4;spacingRight=4;overflow=hidden;rotatable=0;points=[[0,0.5],[1,0.5]];portConstraint=eastwest;" vertex="1" parent="Brwqg4Zs09OCB73X3CUI-56">
          <mxGeometry y="52" width="210" height="26" as="geometry" />
        </mxCell>
        <mxCell id="Brwqg4Zs09OCB73X3CUI-59" value="+Room: GetEntity (int id)" style="text;strokeColor=#000000;fillColor=none;align=left;verticalAlign=top;spacingLeft=4;spacingRight=4;overflow=hidden;rotatable=0;points=[[0,0.5],[1,0.5]];portConstraint=eastwest;" vertex="1" parent="Brwqg4Zs09OCB73X3CUI-56">
          <mxGeometry y="78" width="210" height="22" as="geometry" />
        </mxCell>
        <mxCell id="Brwqg4Zs09OCB73X3CUI-60" value="+Room: GetEntityS(string id)" style="text;strokeColor=#000000;fillColor=none;align=left;verticalAlign=top;spacingLeft=4;spacingRight=4;overflow=hidden;rotatable=0;points=[[0,0.5],[1,0.5]];portConstraint=eastwest;" vertex="1" parent="Brwqg4Zs09OCB73X3CUI-56">
          <mxGeometry y="100" width="210" height="22" as="geometry" />
        </mxCell>
        <mxCell id="Brwqg4Zs09OCB73X3CUI-61" value="+void: Update (Room obj)" style="text;strokeColor=#000000;fillColor=none;align=left;verticalAlign=top;spacingLeft=4;spacingRight=4;overflow=hidden;rotatable=0;points=[[0,0.5],[1,0.5]];portConstraint=eastwest;" vertex="1" parent="Brwqg4Zs09OCB73X3CUI-56">
          <mxGeometry y="122" width="210" height="22" as="geometry" />
        </mxCell>
        <mxCell id="BgHJBI13iY1UevrT18Dg-164" value="Context" style="swimlane;fontStyle=0;childLayout=stackLayout;horizontal=1;startSize=26;fillColor=#dae8fc;horizontalStack=0;resizeParent=1;resizeParentMax=0;resizeLast=0;collapsible=1;marginBottom=0;strokeColor=#6c8ebf;" parent="1" vertex="1">
          <mxGeometry x="1370" y="984" width="210" height="78" as="geometry" />
        </mxCell>
        <mxCell id="BgHJBI13iY1UevrT18Dg-165" value="+DbSet&lt;Pot&gt;: Pots" style="text;strokeColor=#000000;fillColor=none;align=left;verticalAlign=top;spacingLeft=4;spacingRight=4;overflow=hidden;rotatable=0;points=[[0,0.5],[1,0.5]];portConstraint=eastwest;" parent="BgHJBI13iY1UevrT18Dg-164" vertex="1">
          <mxGeometry y="26" width="210" height="26" as="geometry" />
        </mxCell>
        <mxCell id="BgHJBI13iY1UevrT18Dg-166" value="+DbSet&lt;Stand&gt;: Stands" style="text;strokeColor=#000000;fillColor=none;align=left;verticalAlign=top;spacingLeft=4;spacingRight=4;overflow=hidden;rotatable=0;points=[[0,0.5],[1,0.5]];portConstraint=eastwest;" parent="BgHJBI13iY1UevrT18Dg-164" vertex="1">
          <mxGeometry y="52" width="210" height="26" as="geometry" />
        </mxCell>
        <mxCell id="Brwqg4Zs09OCB73X3CUI-20" style="edgeStyle=orthogonalEdgeStyle;rounded=0;orthogonalLoop=1;jettySize=auto;html=1;exitX=1;exitY=0.5;exitDx=0;exitDy=0;entryX=0;entryY=0.5;entryDx=0;entryDy=0;startArrow=diamondThin;startFill=0;" edge="1" parent="1" source="BgHJBI13iY1UevrT18Dg-166" target="Brwqg4Zs09OCB73X3CUI-8">
          <mxGeometry relative="1" as="geometry" />
        </mxCell>
        <mxCell id="BgHJBI13iY1UevrT18Dg-167" value="+DbSet&lt;Flower&gt;: Flowers" style="text;strokeColor=#000000;fillColor=none;align=left;verticalAlign=top;spacingLeft=4;spacingRight=4;overflow=hidden;rotatable=0;points=[[0,0.5],[1,0.5]];portConstraint=eastwest;" parent="1" vertex="1">
          <mxGeometry x="1370" y="1084" width="210" height="22" as="geometry" />
        </mxCell>
        <mxCell id="Brwqg4Zs09OCB73X3CUI-21" value="+DbSet&lt;Fertilizer&gt;: Fertilizers" style="text;strokeColor=#000000;fillColor=none;align=left;verticalAlign=top;spacingLeft=4;spacingRight=4;overflow=hidden;rotatable=0;points=[[0,0.5],[1,0.5]];portConstraint=eastwest;" vertex="1" parent="1">
          <mxGeometry x="1370" y="1130" width="210" height="22" as="geometry" />
        </mxCell>
        <mxCell id="Brwqg4Zs09OCB73X3CUI-28" style="edgeStyle=orthogonalEdgeStyle;rounded=0;orthogonalLoop=1;jettySize=auto;html=1;exitX=0;exitY=0.75;exitDx=0;exitDy=0;entryX=0.75;entryY=0;entryDx=0;entryDy=0;startArrow=none;startFill=0;" edge="1" parent="1" source="Brwqg4Zs09OCB73X3CUI-25" target="BgHJBI13iY1UevrT18Dg-99">
          <mxGeometry relative="1" as="geometry" />
        </mxCell>
        <mxCell id="Brwqg4Zs09OCB73X3CUI-30" style="edgeStyle=orthogonalEdgeStyle;rounded=0;orthogonalLoop=1;jettySize=auto;html=1;exitX=0.5;exitY=1;exitDx=0;exitDy=0;entryX=0.5;entryY=0;entryDx=0;entryDy=0;startArrow=none;startFill=0;" edge="1" parent="1" source="Brwqg4Zs09OCB73X3CUI-26" target="BgHJBI13iY1UevrT18Dg-99">
          <mxGeometry relative="1" as="geometry" />
        </mxCell>
        <mxCell id="Brwqg4Zs09OCB73X3CUI-26" value="IGroundRepository" style="swimlane;fontStyle=0;childLayout=stackLayout;horizontal=1;startSize=26;fillColor=#ffe6cc;horizontalStack=0;resizeParent=1;resizeParentMax=0;resizeLast=0;collapsible=1;marginBottom=0;strokeColor=#d79b00;" vertex="1" parent="1">
          <mxGeometry x="1680" y="-130" width="140" height="52" as="geometry" />
        </mxCell>
        <mxCell id="Brwqg4Zs09OCB73X3CUI-29" style="edgeStyle=orthogonalEdgeStyle;rounded=0;orthogonalLoop=1;jettySize=auto;html=1;exitX=0.5;exitY=1;exitDx=0;exitDy=0;entryX=0.25;entryY=0;entryDx=0;entryDy=0;startArrow=none;startFill=0;" edge="1" parent="1" source="Brwqg4Zs09OCB73X3CUI-27" target="BgHJBI13iY1UevrT18Dg-99">
          <mxGeometry relative="1" as="geometry" />
        </mxCell>
        <mxCell id="Brwqg4Zs09OCB73X3CUI-27" value="IRoomRepository" style="swimlane;fontStyle=0;childLayout=stackLayout;horizontal=1;startSize=26;fillColor=#ffe6cc;horizontalStack=0;resizeParent=1;resizeParentMax=0;resizeLast=0;collapsible=1;marginBottom=0;strokeColor=#d79b00;" vertex="1" parent="1">
          <mxGeometry x="1380" y="-130" width="140" height="52" as="geometry" />
        </mxCell>
        <mxCell id="Brwqg4Zs09OCB73X3CUI-25" value="IStandRepository" style="swimlane;fontStyle=0;childLayout=stackLayout;horizontal=1;startSize=26;fillColor=#ffe6cc;horizontalStack=0;resizeParent=1;resizeParentMax=0;resizeLast=0;collapsible=1;marginBottom=0;strokeColor=#d79b00;" vertex="1" parent="1">
          <mxGeometry x="1770" y="58" width="140" height="52" as="geometry" />
        </mxCell>
        <mxCell id="Brwqg4Zs09OCB73X3CUI-31" value="StandRepository" style="swimlane;fontStyle=0;childLayout=stackLayout;horizontal=1;startSize=26;fillColor=#dae8fc;horizontalStack=0;resizeParent=1;resizeParentMax=0;resizeLast=0;collapsible=1;marginBottom=0;strokeColor=#6c8ebf;" vertex="1" parent="1">
          <mxGeometry x="2130" y="-40" width="210" height="144" as="geometry" />
        </mxCell>
        <mxCell id="Brwqg4Zs09OCB73X3CUI-32" value="-Context: context" style="text;strokeColor=#000000;fillColor=none;align=left;verticalAlign=top;spacingLeft=4;spacingRight=4;overflow=hidden;rotatable=0;points=[[0,0.5],[1,0.5]];portConstraint=eastwest;" vertex="1" parent="Brwqg4Zs09OCB73X3CUI-31">
          <mxGeometry y="26" width="210" height="26" as="geometry" />
        </mxCell>
        <mxCell id="Brwqg4Zs09OCB73X3CUI-33" value="+StandRepository (Context context)" style="text;strokeColor=#000000;fillColor=none;align=left;verticalAlign=top;spacingLeft=4;spacingRight=4;overflow=hidden;rotatable=0;points=[[0,0.5],[1,0.5]];portConstraint=eastwest;" vertex="1" parent="Brwqg4Zs09OCB73X3CUI-31">
          <mxGeometry y="52" width="210" height="26" as="geometry" />
        </mxCell>
        <mxCell id="Brwqg4Zs09OCB73X3CUI-34" value="+Stand: GetEntity (int id)" style="text;strokeColor=#000000;fillColor=none;align=left;verticalAlign=top;spacingLeft=4;spacingRight=4;overflow=hidden;rotatable=0;points=[[0,0.5],[1,0.5]];portConstraint=eastwest;" vertex="1" parent="Brwqg4Zs09OCB73X3CUI-31">
          <mxGeometry y="78" width="210" height="22" as="geometry" />
        </mxCell>
        <mxCell id="Brwqg4Zs09OCB73X3CUI-35" value="+Stand: GetEntityS(string id)" style="text;strokeColor=#000000;fillColor=none;align=left;verticalAlign=top;spacingLeft=4;spacingRight=4;overflow=hidden;rotatable=0;points=[[0,0.5],[1,0.5]];portConstraint=eastwest;" vertex="1" parent="Brwqg4Zs09OCB73X3CUI-31">
          <mxGeometry y="100" width="210" height="22" as="geometry" />
        </mxCell>
        <mxCell id="Brwqg4Zs09OCB73X3CUI-36" value="+void: Update (Stand obj)" style="text;strokeColor=#000000;fillColor=none;align=left;verticalAlign=top;spacingLeft=4;spacingRight=4;overflow=hidden;rotatable=0;points=[[0,0.5],[1,0.5]];portConstraint=eastwest;" vertex="1" parent="Brwqg4Zs09OCB73X3CUI-31">
          <mxGeometry y="122" width="210" height="22" as="geometry" />
        </mxCell>
        <mxCell id="Brwqg4Zs09OCB73X3CUI-37" value="+void: Delete (Stand obj)" style="text;strokeColor=#000000;fillColor=none;align=left;verticalAlign=top;spacingLeft=4;spacingRight=4;overflow=hidden;rotatable=0;points=[[0,0.5],[1,0.5]];portConstraint=eastwest;" vertex="1" parent="1">
          <mxGeometry x="2130" y="104" width="210" height="22" as="geometry" />
        </mxCell>
        <mxCell id="Brwqg4Zs09OCB73X3CUI-38" value="+void Create (Stand obj)" style="text;strokeColor=#000000;fillColor=none;align=left;verticalAlign=top;spacingLeft=4;spacingRight=4;overflow=hidden;rotatable=0;points=[[0,0.5],[1,0.5]];portConstraint=eastwest;" vertex="1" parent="1">
          <mxGeometry x="2130" y="126" width="210" height="22" as="geometry" />
        </mxCell>
        <mxCell id="Brwqg4Zs09OCB73X3CUI-39" value="+IList&lt;Stand&gt; ListEntities()" style="text;strokeColor=#000000;fillColor=none;align=left;verticalAlign=top;spacingLeft=4;spacingRight=4;overflow=hidden;rotatable=0;points=[[0,0.5],[1,0.5]];portConstraint=eastwest;" vertex="1" parent="1">
          <mxGeometry x="2130" y="148" width="210" height="22" as="geometry" />
        </mxCell>
        <mxCell id="Brwqg4Zs09OCB73X3CUI-40" value="GroundRepository" style="swimlane;fontStyle=0;childLayout=stackLayout;horizontal=1;startSize=26;fillColor=#dae8fc;horizontalStack=0;resizeParent=1;resizeParentMax=0;resizeLast=0;collapsible=1;marginBottom=0;strokeColor=#6c8ebf;" vertex="1" parent="1">
          <mxGeometry x="1660" y="-470" width="210" height="144" as="geometry" />
        </mxCell>
        <mxCell id="Brwqg4Zs09OCB73X3CUI-41" value="-Context: context" style="text;strokeColor=#000000;fillColor=none;align=left;verticalAlign=top;spacingLeft=4;spacingRight=4;overflow=hidden;rotatable=0;points=[[0,0.5],[1,0.5]];portConstraint=eastwest;" vertex="1" parent="Brwqg4Zs09OCB73X3CUI-40">
          <mxGeometry y="26" width="210" height="26" as="geometry" />
        </mxCell>
        <mxCell id="Brwqg4Zs09OCB73X3CUI-42" value="+GroundRepository (Context context)" style="text;strokeColor=#000000;fillColor=none;align=left;verticalAlign=top;spacingLeft=4;spacingRight=4;overflow=hidden;rotatable=0;points=[[0,0.5],[1,0.5]];portConstraint=eastwest;" vertex="1" parent="Brwqg4Zs09OCB73X3CUI-40">
          <mxGeometry y="52" width="210" height="26" as="geometry" />
        </mxCell>
        <mxCell id="Brwqg4Zs09OCB73X3CUI-43" value="+Ground: GetEntity (int id)" style="text;strokeColor=#000000;fillColor=none;align=left;verticalAlign=top;spacingLeft=4;spacingRight=4;overflow=hidden;rotatable=0;points=[[0,0.5],[1,0.5]];portConstraint=eastwest;" vertex="1" parent="Brwqg4Zs09OCB73X3CUI-40">
          <mxGeometry y="78" width="210" height="22" as="geometry" />
        </mxCell>
        <mxCell id="Brwqg4Zs09OCB73X3CUI-44" value="+Ground: GetEntityS(string id)" style="text;strokeColor=#000000;fillColor=none;align=left;verticalAlign=top;spacingLeft=4;spacingRight=4;overflow=hidden;rotatable=0;points=[[0,0.5],[1,0.5]];portConstraint=eastwest;" vertex="1" parent="Brwqg4Zs09OCB73X3CUI-40">
          <mxGeometry y="100" width="210" height="22" as="geometry" />
        </mxCell>
        <mxCell id="Brwqg4Zs09OCB73X3CUI-45" value="+void: Update (Ground obj)" style="text;strokeColor=#000000;fillColor=none;align=left;verticalAlign=top;spacingLeft=4;spacingRight=4;overflow=hidden;rotatable=0;points=[[0,0.5],[1,0.5]];portConstraint=eastwest;" vertex="1" parent="Brwqg4Zs09OCB73X3CUI-40">
          <mxGeometry y="122" width="210" height="22" as="geometry" />
        </mxCell>
        <mxCell id="Brwqg4Zs09OCB73X3CUI-53" value="+void: Delete (Ground obj)" style="text;strokeColor=#000000;fillColor=none;align=left;verticalAlign=top;spacingLeft=4;spacingRight=4;overflow=hidden;rotatable=0;points=[[0,0.5],[1,0.5]];portConstraint=eastwest;" vertex="1" parent="1">
          <mxGeometry x="1660" y="-326" width="210" height="22" as="geometry" />
        </mxCell>
        <mxCell id="Brwqg4Zs09OCB73X3CUI-66" style="edgeStyle=orthogonalEdgeStyle;rounded=0;orthogonalLoop=1;jettySize=auto;html=1;exitX=0;exitY=0.5;exitDx=0;exitDy=0;entryX=0.5;entryY=0;entryDx=0;entryDy=0;dashed=1;startArrow=none;startFill=0;" edge="1" parent="1" source="Brwqg4Zs09OCB73X3CUI-54" target="Brwqg4Zs09OCB73X3CUI-26">
          <mxGeometry relative="1" as="geometry" />
        </mxCell>
        <mxCell id="Brwqg4Zs09OCB73X3CUI-54" value="+void Create (Ground obj)" style="text;strokeColor=#000000;fillColor=none;align=left;verticalAlign=top;spacingLeft=4;spacingRight=4;overflow=hidden;rotatable=0;points=[[0,0.5],[1,0.5]];portConstraint=eastwest;" vertex="1" parent="1">
          <mxGeometry x="1660" y="-304" width="210" height="22" as="geometry" />
        </mxCell>
        <mxCell id="Brwqg4Zs09OCB73X3CUI-55" value="+IList&lt;Ground&gt; ListEntities()" style="text;strokeColor=#000000;fillColor=none;align=left;verticalAlign=top;spacingLeft=4;spacingRight=4;overflow=hidden;rotatable=0;points=[[0,0.5],[1,0.5]];portConstraint=eastwest;" vertex="1" parent="1">
          <mxGeometry x="1660" y="-282" width="210" height="22" as="geometry" />
        </mxCell>
        <mxCell id="Brwqg4Zs09OCB73X3CUI-62" value="+void: Delete (Room obj)" style="text;strokeColor=#000000;fillColor=none;align=left;verticalAlign=top;spacingLeft=4;spacingRight=4;overflow=hidden;rotatable=0;points=[[0,0.5],[1,0.5]];portConstraint=eastwest;" vertex="1" parent="1">
          <mxGeometry x="1300" y="-346" width="210" height="22" as="geometry" />
        </mxCell>
        <mxCell id="Brwqg4Zs09OCB73X3CUI-65" style="edgeStyle=orthogonalEdgeStyle;rounded=0;orthogonalLoop=1;jettySize=auto;html=1;exitX=1;exitY=0.5;exitDx=0;exitDy=0;entryX=0.541;entryY=0.025;entryDx=0;entryDy=0;entryPerimeter=0;startArrow=none;startFill=0;dashed=1;" edge="1" parent="1" source="Brwqg4Zs09OCB73X3CUI-63" target="Brwqg4Zs09OCB73X3CUI-27">
          <mxGeometry relative="1" as="geometry" />
        </mxCell>
        <mxCell id="Brwqg4Zs09OCB73X3CUI-63" value="+void Create (Room obj)" style="text;strokeColor=#000000;fillColor=none;align=left;verticalAlign=top;spacingLeft=4;spacingRight=4;overflow=hidden;rotatable=0;points=[[0,0.5],[1,0.5]];portConstraint=eastwest;" vertex="1" parent="1">
          <mxGeometry x="1300" y="-324" width="210" height="22" as="geometry" />
        </mxCell>
        <mxCell id="Brwqg4Zs09OCB73X3CUI-64" value="+IList&lt;Room&gt; ListEntities()" style="text;strokeColor=#000000;fillColor=none;align=left;verticalAlign=top;spacingLeft=4;spacingRight=4;overflow=hidden;rotatable=0;points=[[0,0.5],[1,0.5]];portConstraint=eastwest;" vertex="1" parent="1">
          <mxGeometry x="1300" y="-302" width="210" height="22" as="geometry" />
        </mxCell>
        <mxCell id="Brwqg4Zs09OCB73X3CUI-67" style="edgeStyle=orthogonalEdgeStyle;rounded=0;orthogonalLoop=1;jettySize=auto;html=1;exitX=0;exitY=0.5;exitDx=0;exitDy=0;entryX=1;entryY=0.5;entryDx=0;entryDy=0;dashed=1;startArrow=none;startFill=0;" edge="1" parent="1" source="Brwqg4Zs09OCB73X3CUI-36" target="Brwqg4Zs09OCB73X3CUI-25">
          <mxGeometry relative="1" as="geometry" />
        </mxCell>
        <mxCell id="Brwqg4Zs09OCB73X3CUI-93" style="edgeStyle=orthogonalEdgeStyle;rounded=0;orthogonalLoop=1;jettySize=auto;html=1;exitX=1;exitY=0.5;exitDx=0;exitDy=0;entryX=1;entryY=0.5;entryDx=0;entryDy=0;startArrow=diamond;startFill=1;" edge="1" parent="1" source="Brwqg4Zs09OCB73X3CUI-68" target="Brwqg4Zs09OCB73X3CUI-78">
          <mxGeometry relative="1" as="geometry">
            <Array as="points">
              <mxPoint x="1880" y="747" />
              <mxPoint x="1880" y="1233" />
            </Array>
          </mxGeometry>
        </mxCell>
        <mxCell id="Brwqg4Zs09OCB73X3CUI-68" value="+GroundRepository: Grounds" style="text;strokeColor=#000000;fillColor=none;align=left;verticalAlign=top;spacingLeft=4;spacingRight=4;overflow=hidden;rotatable=0;points=[[0,0.5],[1,0.5]];portConstraint=eastwest;" vertex="1" parent="1">
          <mxGeometry x="1610" y="736" width="210" height="22" as="geometry" />
        </mxCell>
        <mxCell id="Brwqg4Zs09OCB73X3CUI-90" style="edgeStyle=orthogonalEdgeStyle;rounded=0;orthogonalLoop=1;jettySize=auto;html=1;exitX=0;exitY=0.5;exitDx=0;exitDy=0;startArrow=diamond;startFill=1;entryX=0.611;entryY=-0.045;entryDx=0;entryDy=0;entryPerimeter=0;" edge="1" parent="1" source="Brwqg4Zs09OCB73X3CUI-69" target="Brwqg4Zs09OCB73X3CUI-86">
          <mxGeometry relative="1" as="geometry">
            <mxPoint x="940" y="1340" as="targetPoint" />
          </mxGeometry>
        </mxCell>
        <mxCell id="Brwqg4Zs09OCB73X3CUI-69" value="+FertilizerRepository: Fertilizers" style="text;strokeColor=#000000;fillColor=none;align=left;verticalAlign=top;spacingLeft=4;spacingRight=4;overflow=hidden;rotatable=0;points=[[0,0.5],[1,0.5]];portConstraint=eastwest;" vertex="1" parent="1">
          <mxGeometry x="1610" y="758" width="210" height="22" as="geometry" />
        </mxCell>
        <mxCell id="Brwqg4Zs09OCB73X3CUI-89" style="edgeStyle=orthogonalEdgeStyle;rounded=0;orthogonalLoop=1;jettySize=auto;html=1;exitX=0;exitY=0.5;exitDx=0;exitDy=0;entryX=0.691;entryY=-0.004;entryDx=0;entryDy=0;entryPerimeter=0;startArrow=diamond;startFill=1;" edge="1" parent="1" source="Brwqg4Zs09OCB73X3CUI-70" target="Brwqg4Zs09OCB73X3CUI-80">
          <mxGeometry relative="1" as="geometry" />
        </mxCell>
        <mxCell id="Brwqg4Zs09OCB73X3CUI-91" style="edgeStyle=orthogonalEdgeStyle;rounded=0;orthogonalLoop=1;jettySize=auto;html=1;exitX=1;exitY=0.5;exitDx=0;exitDy=0;entryX=0.75;entryY=0;entryDx=0;entryDy=0;startArrow=diamond;startFill=1;" edge="1" parent="1" source="Brwqg4Zs09OCB73X3CUI-70" target="Brwqg4Zs09OCB73X3CUI-71">
          <mxGeometry relative="1" as="geometry">
            <Array as="points">
              <mxPoint x="1840" y="791" />
              <mxPoint x="1840" y="940" />
              <mxPoint x="640" y="940" />
            </Array>
          </mxGeometry>
        </mxCell>
        <mxCell id="Brwqg4Zs09OCB73X3CUI-70" value="+StandRepository: Stands" style="text;strokeColor=#000000;fillColor=none;align=left;verticalAlign=top;spacingLeft=4;spacingRight=4;overflow=hidden;rotatable=0;points=[[0,0.5],[1,0.5]];portConstraint=eastwest;" vertex="1" parent="1">
          <mxGeometry x="1610" y="780" width="210" height="22" as="geometry" />
        </mxCell>
        <mxCell id="BgHJBI13iY1UevrT18Dg-147" value="UnitOfWork" style="swimlane;fontStyle=0;childLayout=stackLayout;horizontal=1;startSize=26;fillColor=#dae8fc;horizontalStack=0;resizeParent=1;resizeParentMax=0;resizeLast=0;collapsible=1;marginBottom=0;strokeColor=#6c8ebf;" parent="1" vertex="1">
          <mxGeometry x="1610" y="636" width="210" height="100" as="geometry" />
        </mxCell>
        <mxCell id="BgHJBI13iY1UevrT18Dg-148" value="-Context: context" style="text;strokeColor=#000000;fillColor=none;align=left;verticalAlign=top;spacingLeft=4;spacingRight=4;overflow=hidden;rotatable=0;points=[[0,0.5],[1,0.5]];portConstraint=eastwest;" parent="BgHJBI13iY1UevrT18Dg-147" vertex="1">
          <mxGeometry y="26" width="210" height="26" as="geometry" />
        </mxCell>
        <mxCell id="BgHJBI13iY1UevrT18Dg-149" value="+FlowerRepository: Flowers" style="text;strokeColor=#000000;fillColor=none;align=left;verticalAlign=top;spacingLeft=4;spacingRight=4;overflow=hidden;rotatable=0;points=[[0,0.5],[1,0.5]];portConstraint=eastwest;" parent="BgHJBI13iY1UevrT18Dg-147" vertex="1">
          <mxGeometry y="52" width="210" height="26" as="geometry" />
        </mxCell>
        <mxCell id="BgHJBI13iY1UevrT18Dg-150" value="+RoomRepository: Rooms" style="text;strokeColor=#000000;fillColor=none;align=left;verticalAlign=top;spacingLeft=4;spacingRight=4;overflow=hidden;rotatable=0;points=[[0,0.5],[1,0.5]];portConstraint=eastwest;" parent="BgHJBI13iY1UevrT18Dg-147" vertex="1">
          <mxGeometry y="78" width="210" height="22" as="geometry" />
        </mxCell>
        <mxCell id="Brwqg4Zs09OCB73X3CUI-74" value="Fertilizer" style="swimlane;fontStyle=1;align=center;verticalAlign=top;childLayout=stackLayout;horizontal=1;startSize=26;horizontalStack=0;resizeParent=1;resizeParentMax=0;resizeLast=0;collapsible=1;marginBottom=0;fillColor=#dae8fc;strokeColor=#6c8ebf;" vertex="1" parent="1">
          <mxGeometry x="260" y="1290" width="160" height="98" as="geometry" />
        </mxCell>
        <mxCell id="Brwqg4Zs09OCB73X3CUI-75" value="+string: Name&#xa;+int: Size&#xa;+Date: ExpirationDate" style="text;strokeColor=none;fillColor=none;align=left;verticalAlign=top;spacingLeft=4;spacingRight=4;overflow=hidden;rotatable=0;points=[[0,0.5],[1,0.5]];portConstraint=eastwest;" vertex="1" parent="Brwqg4Zs09OCB73X3CUI-74">
          <mxGeometry y="26" width="160" height="64" as="geometry" />
        </mxCell>
        <mxCell id="Brwqg4Zs09OCB73X3CUI-76" value="" style="line;strokeWidth=1;fillColor=none;align=left;verticalAlign=middle;spacingTop=-1;spacingLeft=3;spacingRight=3;rotatable=0;labelPosition=right;points=[];portConstraint=eastwest;" vertex="1" parent="Brwqg4Zs09OCB73X3CUI-74">
          <mxGeometry y="90" width="160" height="8" as="geometry" />
        </mxCell>
        <mxCell id="Brwqg4Zs09OCB73X3CUI-92" style="edgeStyle=orthogonalEdgeStyle;rounded=0;orthogonalLoop=1;jettySize=auto;html=1;exitX=0;exitY=0.5;exitDx=0;exitDy=0;entryX=0.5;entryY=0;entryDx=0;entryDy=0;startArrow=diamond;startFill=1;" edge="1" parent="1" source="BgHJBI13iY1UevrT18Dg-150" target="Brwqg4Zs09OCB73X3CUI-74">
          <mxGeometry relative="1" as="geometry" />
        </mxCell>
        <mxCell id="BgHJBI13iY1UevrT18Dg-168" value="Flower" style="swimlane;fontStyle=1;align=center;verticalAlign=top;childLayout=stackLayout;horizontal=1;startSize=26;horizontalStack=0;resizeParent=1;resizeParentMax=0;resizeLast=0;collapsible=1;marginBottom=0;fillColor=#dae8fc;strokeColor=#6c8ebf;" parent="1" vertex="1">
          <mxGeometry x="1870" y="1248" width="160" height="98" as="geometry" />
        </mxCell>
        <mxCell id="BgHJBI13iY1UevrT18Dg-169" value="+string: Name&#xa;+int: Tempetature&#xa;+string: Conditions&#xa;+int: Price" style="text;strokeColor=none;fillColor=none;align=left;verticalAlign=top;spacingLeft=4;spacingRight=4;overflow=hidden;rotatable=0;points=[[0,0.5],[1,0.5]];portConstraint=eastwest;" parent="BgHJBI13iY1UevrT18Dg-168" vertex="1">
          <mxGeometry y="26" width="160" height="64" as="geometry" />
        </mxCell>
        <mxCell id="BgHJBI13iY1UevrT18Dg-170" value="" style="line;strokeWidth=1;fillColor=none;align=left;verticalAlign=middle;spacingTop=-1;spacingLeft=3;spacingRight=3;rotatable=0;labelPosition=right;points=[];portConstraint=eastwest;" parent="BgHJBI13iY1UevrT18Dg-168" vertex="1">
          <mxGeometry y="90" width="160" height="8" as="geometry" />
        </mxCell>
        <mxCell id="Brwqg4Zs09OCB73X3CUI-3" value="Ground" style="swimlane;fontStyle=1;align=center;verticalAlign=top;childLayout=stackLayout;horizontal=1;startSize=26;horizontalStack=0;resizeParent=1;resizeParentMax=0;resizeLast=0;collapsible=1;marginBottom=0;fillColor=#dae8fc;strokeColor=#6c8ebf;" vertex="1" parent="1">
          <mxGeometry x="1470" y="1299" width="160" height="80" as="geometry" />
        </mxCell>
        <mxCell id="Brwqg4Zs09OCB73X3CUI-4" value="+string: Name&#xa;+int: Size&#xa;" style="text;strokeColor=none;fillColor=none;align=left;verticalAlign=top;spacingLeft=4;spacingRight=4;overflow=hidden;rotatable=0;points=[[0,0.5],[1,0.5]];portConstraint=eastwest;" vertex="1" parent="Brwqg4Zs09OCB73X3CUI-3">
          <mxGeometry y="26" width="160" height="54" as="geometry" />
        </mxCell>
        <mxCell id="Brwqg4Zs09OCB73X3CUI-5" value="" style="line;strokeWidth=1;fillColor=none;align=left;verticalAlign=middle;spacingTop=-1;spacingLeft=3;spacingRight=3;rotatable=0;labelPosition=right;points=[];portConstraint=eastwest;" vertex="1" parent="Brwqg4Zs09OCB73X3CUI-3">
          <mxGeometry y="80" width="160" as="geometry" />
        </mxCell>
        <mxCell id="BgHJBI13iY1UevrT18Dg-175" value="Pot" style="swimlane;fontStyle=1;align=center;verticalAlign=top;childLayout=stackLayout;horizontal=1;startSize=26;horizontalStack=0;resizeParent=1;resizeParentMax=0;resizeLast=0;collapsible=1;marginBottom=0;fillColor=#dae8fc;strokeColor=#6c8ebf;" parent="1" vertex="1">
          <mxGeometry x="1250" y="1310" width="160" height="78" as="geometry" />
        </mxCell>
        <mxCell id="BgHJBI13iY1UevrT18Dg-176" value="+string: Name&#xa;+int: Size" style="text;strokeColor=none;fillColor=none;align=left;verticalAlign=top;spacingLeft=4;spacingRight=4;overflow=hidden;rotatable=0;points=[[0,0.5],[1,0.5]];portConstraint=eastwest;" parent="BgHJBI13iY1UevrT18Dg-175" vertex="1">
          <mxGeometry y="26" width="160" height="44" as="geometry" />
        </mxCell>
        <mxCell id="BgHJBI13iY1UevrT18Dg-177" value="" style="line;strokeWidth=1;fillColor=none;align=left;verticalAlign=middle;spacingTop=-1;spacingLeft=3;spacingRight=3;rotatable=0;labelPosition=right;points=[];portConstraint=eastwest;" parent="BgHJBI13iY1UevrT18Dg-175" vertex="1">
          <mxGeometry y="70" width="160" height="8" as="geometry" />
        </mxCell>
        <mxCell id="Brwqg4Zs09OCB73X3CUI-94" style="edgeStyle=orthogonalEdgeStyle;rounded=0;orthogonalLoop=1;jettySize=auto;html=1;exitX=1;exitY=0.5;exitDx=0;exitDy=0;entryX=1;entryY=0.5;entryDx=0;entryDy=0;startArrow=diamond;startFill=1;" edge="1" parent="1" source="BgHJBI13iY1UevrT18Dg-150" target="Brwqg4Zs09OCB73X3CUI-84">
          <mxGeometry relative="1" as="geometry">
            <Array as="points">
              <mxPoint x="1840" y="725" />
              <mxPoint x="1840" y="1270" />
              <mxPoint x="30" y="1270" />
            </Array>
          </mxGeometry>
        </mxCell>
        <mxCell id="Brwqg4Zs09OCB73X3CUI-77" value="Ground" style="swimlane;fontStyle=1;align=center;verticalAlign=top;childLayout=stackLayout;horizontal=1;startSize=26;horizontalStack=0;resizeParent=1;resizeParentMax=0;resizeLast=0;collapsible=1;marginBottom=0;fillColor=#dae8fc;strokeColor=#6c8ebf;" vertex="1" parent="1">
          <mxGeometry x="60" y="1180" width="160" height="80" as="geometry" />
        </mxCell>
        <mxCell id="Brwqg4Zs09OCB73X3CUI-78" value="+string: Name&#xa;+int: Size&#xa;" style="text;strokeColor=none;fillColor=none;align=left;verticalAlign=top;spacingLeft=4;spacingRight=4;overflow=hidden;rotatable=0;points=[[0,0.5],[1,0.5]];portConstraint=eastwest;" vertex="1" parent="Brwqg4Zs09OCB73X3CUI-77">
          <mxGeometry y="26" width="160" height="54" as="geometry" />
        </mxCell>
        <mxCell id="Brwqg4Zs09OCB73X3CUI-79" value="" style="line;strokeWidth=1;fillColor=none;align=left;verticalAlign=middle;spacingTop=-1;spacingLeft=3;spacingRight=3;rotatable=0;labelPosition=right;points=[];portConstraint=eastwest;" vertex="1" parent="Brwqg4Zs09OCB73X3CUI-77">
          <mxGeometry y="80" width="160" as="geometry" />
        </mxCell>
        <mxCell id="Brwqg4Zs09OCB73X3CUI-128" value="FertilizerMapper" style="swimlane;fontStyle=0;childLayout=stackLayout;horizontal=1;startSize=26;fillColor=#dae8fc;horizontalStack=0;resizeParent=1;resizeParentMax=0;resizeLast=0;collapsible=1;marginBottom=0;strokeColor=#6c8ebf;" vertex="1" parent="1">
          <mxGeometry x="110" y="-600" width="300" height="84" as="geometry" />
        </mxCell>
        <mxCell id="Brwqg4Zs09OCB73X3CUI-129" value="+FetrilizerDTO: FetrilizerToFertilizerDTO(Fertilizer)" style="text;strokeColor=none;fillColor=none;align=left;verticalAlign=top;spacingLeft=4;spacingRight=4;overflow=hidden;rotatable=0;points=[[0,0.5],[1,0.5]];portConstraint=eastwest;" vertex="1" parent="Brwqg4Zs09OCB73X3CUI-128">
          <mxGeometry y="26" width="300" height="26" as="geometry" />
        </mxCell>
        <mxCell id="Brwqg4Zs09OCB73X3CUI-130" value="+Fertilizer: FertilizerDTOToFertilizer(FertilizerDTO)" style="text;strokeColor=#000000;fillColor=none;align=left;verticalAlign=top;spacingLeft=4;spacingRight=4;overflow=hidden;rotatable=0;points=[[0,0.5],[1,0.5]];portConstraint=eastwest;" vertex="1" parent="Brwqg4Zs09OCB73X3CUI-128">
          <mxGeometry y="52" width="300" height="32" as="geometry" />
        </mxCell>
        <mxCell id="Brwqg4Zs09OCB73X3CUI-86" value="Room" style="swimlane;fontStyle=1;align=center;verticalAlign=top;childLayout=stackLayout;horizontal=1;startSize=26;horizontalStack=0;resizeParent=1;resizeParentMax=0;resizeLast=0;collapsible=1;marginBottom=0;fillColor=#dae8fc;strokeColor=#6c8ebf;" vertex="1" parent="1">
          <mxGeometry x="790" y="1360" width="160" height="80" as="geometry" />
        </mxCell>
        <mxCell id="Brwqg4Zs09OCB73X3CUI-87" value="+string: Name&#xa;+int: Size&#xa;+string: Conditions" style="text;strokeColor=none;fillColor=none;align=left;verticalAlign=top;spacingLeft=4;spacingRight=4;overflow=hidden;rotatable=0;points=[[0,0.5],[1,0.5]];portConstraint=eastwest;" vertex="1" parent="Brwqg4Zs09OCB73X3CUI-86">
          <mxGeometry y="26" width="160" height="54" as="geometry" />
        </mxCell>
        <mxCell id="Brwqg4Zs09OCB73X3CUI-88" value="" style="line;strokeWidth=1;fillColor=none;align=left;verticalAlign=middle;spacingTop=-1;spacingLeft=3;spacingRight=3;rotatable=0;labelPosition=right;points=[];portConstraint=eastwest;" vertex="1" parent="Brwqg4Zs09OCB73X3CUI-86">
          <mxGeometry y="80" width="160" as="geometry" />
        </mxCell>
        <mxCell id="Brwqg4Zs09OCB73X3CUI-80" value="Flower" style="swimlane;fontStyle=1;align=center;verticalAlign=top;childLayout=stackLayout;horizontal=1;startSize=26;horizontalStack=0;resizeParent=1;resizeParentMax=0;resizeLast=0;collapsible=1;marginBottom=0;fillColor=#dae8fc;strokeColor=#6c8ebf;" vertex="1" parent="1">
          <mxGeometry x="690" y="1092" width="160" height="98" as="geometry" />
        </mxCell>
        <mxCell id="Brwqg4Zs09OCB73X3CUI-81" value="+string: Name&#xa;+int: Tempetature&#xa;+string: Conditions&#xa;+int: Price" style="text;strokeColor=none;fillColor=none;align=left;verticalAlign=top;spacingLeft=4;spacingRight=4;overflow=hidden;rotatable=0;points=[[0,0.5],[1,0.5]];portConstraint=eastwest;" vertex="1" parent="Brwqg4Zs09OCB73X3CUI-80">
          <mxGeometry y="26" width="160" height="64" as="geometry" />
        </mxCell>
        <mxCell id="Brwqg4Zs09OCB73X3CUI-82" value="" style="line;strokeWidth=1;fillColor=none;align=left;verticalAlign=middle;spacingTop=-1;spacingLeft=3;spacingRight=3;rotatable=0;labelPosition=right;points=[];portConstraint=eastwest;" vertex="1" parent="Brwqg4Zs09OCB73X3CUI-80">
          <mxGeometry y="90" width="160" height="8" as="geometry" />
        </mxCell>
        <mxCell id="Brwqg4Zs09OCB73X3CUI-97" style="edgeStyle=orthogonalEdgeStyle;rounded=0;orthogonalLoop=1;jettySize=auto;html=1;exitX=0;exitY=0.5;exitDx=0;exitDy=0;entryX=0.5;entryY=0;entryDx=0;entryDy=0;startArrow=none;startFill=0;" edge="1" parent="1" source="BgHJBI13iY1UevrT18Dg-62" target="Brwqg4Zs09OCB73X3CUI-71">
          <mxGeometry relative="1" as="geometry">
            <Array as="points">
              <mxPoint x="530" y="243" />
              <mxPoint x="530" y="1330" />
            </Array>
          </mxGeometry>
        </mxCell>
        <mxCell id="Brwqg4Zs09OCB73X3CUI-98" style="edgeStyle=orthogonalEdgeStyle;rounded=0;orthogonalLoop=1;jettySize=auto;html=1;exitX=0;exitY=0.5;exitDx=0;exitDy=0;entryX=0.5;entryY=0;entryDx=0;entryDy=0;startArrow=none;startFill=0;" edge="1" parent="1" source="BgHJBI13iY1UevrT18Dg-66" target="Brwqg4Zs09OCB73X3CUI-77">
          <mxGeometry relative="1" as="geometry">
            <Array as="points">
              <mxPoint x="-240" y="126" />
              <mxPoint x="-240" y="661" />
              <mxPoint x="140" y="661" />
            </Array>
          </mxGeometry>
        </mxCell>
        <mxCell id="Brwqg4Zs09OCB73X3CUI-71" value="Pot" style="swimlane;fontStyle=1;align=center;verticalAlign=top;childLayout=stackLayout;horizontal=1;startSize=26;horizontalStack=0;resizeParent=1;resizeParentMax=0;resizeLast=0;collapsible=1;marginBottom=0;fillColor=#dae8fc;strokeColor=#6c8ebf;" vertex="1" parent="1">
          <mxGeometry x="520" y="1360" width="160" height="78" as="geometry" />
        </mxCell>
        <mxCell id="Brwqg4Zs09OCB73X3CUI-72" value="+string: Name&#xa;+int: Size" style="text;strokeColor=none;fillColor=none;align=left;verticalAlign=top;spacingLeft=4;spacingRight=4;overflow=hidden;rotatable=0;points=[[0,0.5],[1,0.5]];portConstraint=eastwest;" vertex="1" parent="Brwqg4Zs09OCB73X3CUI-71">
          <mxGeometry y="26" width="160" height="44" as="geometry" />
        </mxCell>
        <mxCell id="Brwqg4Zs09OCB73X3CUI-73" value="" style="line;strokeWidth=1;fillColor=none;align=left;verticalAlign=middle;spacingTop=-1;spacingLeft=3;spacingRight=3;rotatable=0;labelPosition=right;points=[];portConstraint=eastwest;" vertex="1" parent="Brwqg4Zs09OCB73X3CUI-71">
          <mxGeometry y="70" width="160" height="8" as="geometry" />
        </mxCell>
        <mxCell id="BgHJBI13iY1UevrT18Dg-27" value="IPotService" style="swimlane;fontStyle=0;childLayout=stackLayout;horizontal=1;startSize=26;fillColor=#ffe6cc;horizontalStack=0;resizeParent=1;resizeParentMax=0;resizeLast=0;collapsible=1;marginBottom=0;strokeColor=#d79b00;" parent="1" vertex="1" collapsed="1">
          <mxGeometry x="550" y="470" width="130" height="50" as="geometry">
            <mxRectangle x="560" y="330" width="140" height="52" as="alternateBounds" />
          </mxGeometry>
        </mxCell>
        <mxCell id="Brwqg4Zs09OCB73X3CUI-119" style="edgeStyle=orthogonalEdgeStyle;rounded=0;orthogonalLoop=1;jettySize=auto;html=1;exitX=0.5;exitY=1;exitDx=0;exitDy=0;entryX=1;entryY=0.5;entryDx=0;entryDy=0;startArrow=none;startFill=0;" edge="1" parent="1" source="Brwqg4Zs09OCB73X3CUI-103" target="BgHJBI13iY1UevrT18Dg-18">
          <mxGeometry relative="1" as="geometry" />
        </mxCell>
        <mxCell id="Brwqg4Zs09OCB73X3CUI-103" value="IRoomService" style="swimlane;fontStyle=0;childLayout=stackLayout;horizontal=1;startSize=26;fillColor=#ffe6cc;horizontalStack=0;resizeParent=1;resizeParentMax=0;resizeLast=0;collapsible=1;marginBottom=0;strokeColor=#d79b00;" vertex="1" collapsed="1" parent="1">
          <mxGeometry x="620" y="90" width="130" height="50" as="geometry">
            <mxRectangle x="560" y="330" width="140" height="52" as="alternateBounds" />
          </mxGeometry>
        </mxCell>
        <mxCell id="Brwqg4Zs09OCB73X3CUI-105" value="RoomService" style="swimlane;fontStyle=0;childLayout=stackLayout;horizontal=1;startSize=26;fillColor=#dae8fc;horizontalStack=0;resizeParent=1;resizeParentMax=0;resizeLast=0;collapsible=1;marginBottom=0;strokeColor=#6c8ebf;" vertex="1" parent="1">
          <mxGeometry x="590" y="-300" width="210" height="100" as="geometry" />
        </mxCell>
        <mxCell id="Brwqg4Zs09OCB73X3CUI-106" value="-UnitOfWork: unitofwork" style="text;strokeColor=#000000;fillColor=none;align=left;verticalAlign=top;spacingLeft=4;spacingRight=4;overflow=hidden;rotatable=0;points=[[0,0.5],[1,0.5]];portConstraint=eastwest;" vertex="1" parent="Brwqg4Zs09OCB73X3CUI-105">
          <mxGeometry y="26" width="210" height="26" as="geometry" />
        </mxCell>
        <mxCell id="Brwqg4Zs09OCB73X3CUI-107" value="-RoomMapper: mapper" style="text;strokeColor=#000000;fillColor=none;align=left;verticalAlign=top;spacingLeft=4;spacingRight=4;overflow=hidden;rotatable=0;points=[[0,0.5],[1,0.5]];portConstraint=eastwest;" vertex="1" parent="Brwqg4Zs09OCB73X3CUI-105">
          <mxGeometry y="52" width="210" height="26" as="geometry" />
        </mxCell>
        <mxCell id="Brwqg4Zs09OCB73X3CUI-108" value="+RoomDTO: GetEntity(int id)" style="text;strokeColor=#000000;fillColor=none;align=left;verticalAlign=top;spacingLeft=4;spacingRight=4;overflow=hidden;rotatable=0;points=[[0,0.5],[1,0.5]];portConstraint=eastwest;" vertex="1" parent="Brwqg4Zs09OCB73X3CUI-105">
          <mxGeometry y="78" width="210" height="22" as="geometry" />
        </mxCell>
        <mxCell id="Brwqg4Zs09OCB73X3CUI-109" value="+void: Create (RoomDTO obj)" style="text;strokeColor=#000000;fillColor=none;align=left;verticalAlign=top;spacingLeft=4;spacingRight=4;overflow=hidden;rotatable=0;points=[[0,0.5],[1,0.5]];portConstraint=eastwest;" vertex="1" parent="1">
          <mxGeometry x="590" y="-200" width="210" height="26" as="geometry" />
        </mxCell>
        <mxCell id="Brwqg4Zs09OCB73X3CUI-110" value="+void: Update (RoomDTO obj)" style="text;strokeColor=#000000;fillColor=none;align=left;verticalAlign=top;spacingLeft=4;spacingRight=4;overflow=hidden;rotatable=0;points=[[0,0.5],[1,0.5]];portConstraint=eastwest;" vertex="1" parent="1">
          <mxGeometry x="590" y="-174" width="210" height="26" as="geometry" />
        </mxCell>
        <mxCell id="Brwqg4Zs09OCB73X3CUI-111" value="+void: Delete (int id)" style="text;strokeColor=#000000;fillColor=none;align=left;verticalAlign=top;spacingLeft=4;spacingRight=4;overflow=hidden;rotatable=0;points=[[0,0.5],[1,0.5]];portConstraint=eastwest;" vertex="1" parent="1">
          <mxGeometry x="590" y="-148" width="210" height="26" as="geometry" />
        </mxCell>
        <mxCell id="Brwqg4Zs09OCB73X3CUI-116" style="edgeStyle=orthogonalEdgeStyle;rounded=0;orthogonalLoop=1;jettySize=auto;html=1;exitX=0;exitY=0.5;exitDx=0;exitDy=0;entryX=0.5;entryY=0;entryDx=0;entryDy=0;startArrow=none;startFill=0;dashed=1;" edge="1" parent="1" source="Brwqg4Zs09OCB73X3CUI-112" target="Brwqg4Zs09OCB73X3CUI-103">
          <mxGeometry relative="1" as="geometry" />
        </mxCell>
        <mxCell id="Brwqg4Zs09OCB73X3CUI-112" value="+RoomDTO: Read()" style="text;strokeColor=#000000;fillColor=none;align=left;verticalAlign=top;spacingLeft=4;spacingRight=4;overflow=hidden;rotatable=0;points=[[0,0.5],[1,0.5]];portConstraint=eastwest;" vertex="1" parent="1">
          <mxGeometry x="590" y="-122" width="210" height="26" as="geometry" />
        </mxCell>
        <mxCell id="Brwqg4Zs09OCB73X3CUI-113" value="RoomMapper" style="swimlane;fontStyle=0;childLayout=stackLayout;horizontal=1;startSize=26;fillColor=#dae8fc;horizontalStack=0;resizeParent=1;resizeParentMax=0;resizeLast=0;collapsible=1;marginBottom=0;strokeColor=#6c8ebf;" vertex="1" parent="1">
          <mxGeometry x="870" y="-180" width="300" height="84" as="geometry" />
        </mxCell>
        <mxCell id="Brwqg4Zs09OCB73X3CUI-114" value="+RoomDTO: RoomToRoomDTO(Room)" style="text;strokeColor=none;fillColor=none;align=left;verticalAlign=top;spacingLeft=4;spacingRight=4;overflow=hidden;rotatable=0;points=[[0,0.5],[1,0.5]];portConstraint=eastwest;" vertex="1" parent="Brwqg4Zs09OCB73X3CUI-113">
          <mxGeometry y="26" width="300" height="26" as="geometry" />
        </mxCell>
        <mxCell id="Brwqg4Zs09OCB73X3CUI-115" value="+Room: RoomDTOToRoom(RoomDTO)" style="text;strokeColor=#000000;fillColor=none;align=left;verticalAlign=top;spacingLeft=4;spacingRight=4;overflow=hidden;rotatable=0;points=[[0,0.5],[1,0.5]];portConstraint=eastwest;" vertex="1" parent="Brwqg4Zs09OCB73X3CUI-113">
          <mxGeometry y="52" width="300" height="32" as="geometry" />
        </mxCell>
        <mxCell id="Brwqg4Zs09OCB73X3CUI-117" style="edgeStyle=orthogonalEdgeStyle;rounded=0;orthogonalLoop=1;jettySize=auto;html=1;exitX=0;exitY=0.5;exitDx=0;exitDy=0;entryX=1.005;entryY=0.077;entryDx=0;entryDy=0;entryPerimeter=0;startArrow=diamondThin;startFill=1;" edge="1" parent="1" source="Brwqg4Zs09OCB73X3CUI-115" target="Brwqg4Zs09OCB73X3CUI-111">
          <mxGeometry relative="1" as="geometry" />
        </mxCell>
        <mxCell id="Brwqg4Zs09OCB73X3CUI-118" style="edgeStyle=orthogonalEdgeStyle;rounded=0;orthogonalLoop=1;jettySize=auto;html=1;exitX=1;exitY=0.5;exitDx=0;exitDy=0;entryX=0.75;entryY=0;entryDx=0;entryDy=0;startArrow=none;startFill=0;" edge="1" parent="1" source="Brwqg4Zs09OCB73X3CUI-115" target="Brwqg4Zs09OCB73X3CUI-86">
          <mxGeometry relative="1" as="geometry">
            <Array as="points">
              <mxPoint x="1180" y="-112" />
              <mxPoint x="1180" y="632" />
              <mxPoint x="910" y="632" />
            </Array>
          </mxGeometry>
        </mxCell>
        <mxCell id="BgHJBI13iY1UevrT18Dg-123" value="FertilizerRepository" style="swimlane;fontStyle=0;childLayout=stackLayout;horizontal=1;startSize=26;fillColor=#dae8fc;horizontalStack=0;resizeParent=1;resizeParentMax=0;resizeLast=0;collapsible=1;marginBottom=0;strokeColor=#6c8ebf;" parent="1" vertex="1">
          <mxGeometry x="1195" y="302" width="210" height="122" as="geometry" />
        </mxCell>
        <mxCell id="BgHJBI13iY1UevrT18Dg-124" value="-Context: context" style="text;strokeColor=#000000;fillColor=none;align=left;verticalAlign=top;spacingLeft=4;spacingRight=4;overflow=hidden;rotatable=0;points=[[0,0.5],[1,0.5]];portConstraint=eastwest;" parent="BgHJBI13iY1UevrT18Dg-123" vertex="1">
          <mxGeometry y="26" width="210" height="26" as="geometry" />
        </mxCell>
        <mxCell id="BgHJBI13iY1UevrT18Dg-125" value="+FertilizerRepository (Context context)" style="text;strokeColor=#000000;fillColor=none;align=left;verticalAlign=top;spacingLeft=4;spacingRight=4;overflow=hidden;rotatable=0;points=[[0,0.5],[1,0.5]];portConstraint=eastwest;" parent="BgHJBI13iY1UevrT18Dg-123" vertex="1">
          <mxGeometry y="52" width="210" height="26" as="geometry" />
        </mxCell>
        <mxCell id="BgHJBI13iY1UevrT18Dg-126" value="+Fertilizer: GetEntity (int id)" style="text;strokeColor=#000000;fillColor=none;align=left;verticalAlign=top;spacingLeft=4;spacingRight=4;overflow=hidden;rotatable=0;points=[[0,0.5],[1,0.5]];portConstraint=eastwest;" parent="BgHJBI13iY1UevrT18Dg-123" vertex="1">
          <mxGeometry y="78" width="210" height="22" as="geometry" />
        </mxCell>
        <mxCell id="BgHJBI13iY1UevrT18Dg-135" value="+IList&lt;Fertilizer&gt; ListEntities()" style="text;strokeColor=#000000;fillColor=none;align=left;verticalAlign=top;spacingLeft=4;spacingRight=4;overflow=hidden;rotatable=0;points=[[0,0.5],[1,0.5]];portConstraint=eastwest;" parent="BgHJBI13iY1UevrT18Dg-123" vertex="1">
          <mxGeometry y="100" width="210" height="22" as="geometry" />
        </mxCell>
        <mxCell id="Brwqg4Zs09OCB73X3CUI-133" style="edgeStyle=orthogonalEdgeStyle;rounded=0;orthogonalLoop=1;jettySize=auto;html=1;exitX=1;exitY=0.75;exitDx=0;exitDy=0;entryX=0;entryY=0.25;entryDx=0;entryDy=0;startArrow=none;startFill=0;" edge="1" parent="1" source="Brwqg4Zs09OCB73X3CUI-102" target="BgHJBI13iY1UevrT18Dg-17">
          <mxGeometry relative="1" as="geometry" />
        </mxCell>
        <mxCell id="Brwqg4Zs09OCB73X3CUI-102" value="IFertilizerService" style="swimlane;fontStyle=0;childLayout=stackLayout;horizontal=1;startSize=26;fillColor=#ffe6cc;horizontalStack=0;resizeParent=1;resizeParentMax=0;resizeLast=0;collapsible=1;marginBottom=0;strokeColor=#d79b00;" vertex="1" collapsed="1" parent="1">
          <mxGeometry x="140" y="-200" width="130" height="50" as="geometry">
            <mxRectangle x="560" y="330" width="140" height="52" as="alternateBounds" />
          </mxGeometry>
        </mxCell>
        <mxCell id="Brwqg4Zs09OCB73X3CUI-120" value="FertilizerService" style="swimlane;fontStyle=0;childLayout=stackLayout;horizontal=1;startSize=26;fillColor=#dae8fc;horizontalStack=0;resizeParent=1;resizeParentMax=0;resizeLast=0;collapsible=1;marginBottom=0;strokeColor=#6c8ebf;" vertex="1" parent="1">
          <mxGeometry x="134" y="-460" width="210" height="100" as="geometry" />
        </mxCell>
        <mxCell id="Brwqg4Zs09OCB73X3CUI-121" value="-UnitOfWork: unitofwork" style="text;strokeColor=#000000;fillColor=none;align=left;verticalAlign=top;spacingLeft=4;spacingRight=4;overflow=hidden;rotatable=0;points=[[0,0.5],[1,0.5]];portConstraint=eastwest;" vertex="1" parent="Brwqg4Zs09OCB73X3CUI-120">
          <mxGeometry y="26" width="210" height="26" as="geometry" />
        </mxCell>
        <mxCell id="Brwqg4Zs09OCB73X3CUI-122" value="-FertilizerMapper: mapper" style="text;strokeColor=#000000;fillColor=none;align=left;verticalAlign=top;spacingLeft=4;spacingRight=4;overflow=hidden;rotatable=0;points=[[0,0.5],[1,0.5]];portConstraint=eastwest;" vertex="1" parent="Brwqg4Zs09OCB73X3CUI-120">
          <mxGeometry y="52" width="210" height="26" as="geometry" />
        </mxCell>
        <mxCell id="Brwqg4Zs09OCB73X3CUI-123" value="+FetrilizerDTO: GetEntity(int id)" style="text;strokeColor=#000000;fillColor=none;align=left;verticalAlign=top;spacingLeft=4;spacingRight=4;overflow=hidden;rotatable=0;points=[[0,0.5],[1,0.5]];portConstraint=eastwest;" vertex="1" parent="Brwqg4Zs09OCB73X3CUI-120">
          <mxGeometry y="78" width="210" height="22" as="geometry" />
        </mxCell>
        <mxCell id="Brwqg4Zs09OCB73X3CUI-124" value="+void: Create (FertilizerDTO obj)" style="text;strokeColor=#000000;fillColor=none;align=left;verticalAlign=top;spacingLeft=4;spacingRight=4;overflow=hidden;rotatable=0;points=[[0,0.5],[1,0.5]];portConstraint=eastwest;" vertex="1" parent="1">
          <mxGeometry x="134" y="-360" width="210" height="26" as="geometry" />
        </mxCell>
        <mxCell id="Brwqg4Zs09OCB73X3CUI-125" value="+void: Update (FertilizerDTO obj)" style="text;strokeColor=#000000;fillColor=none;align=left;verticalAlign=top;spacingLeft=4;spacingRight=4;overflow=hidden;rotatable=0;points=[[0,0.5],[1,0.5]];portConstraint=eastwest;" vertex="1" parent="1">
          <mxGeometry x="134" y="-334" width="210" height="26" as="geometry" />
        </mxCell>
        <mxCell id="Brwqg4Zs09OCB73X3CUI-126" value="+void: Delete (int id)" style="text;strokeColor=#000000;fillColor=none;align=left;verticalAlign=top;spacingLeft=4;spacingRight=4;overflow=hidden;rotatable=0;points=[[0,0.5],[1,0.5]];portConstraint=eastwest;" vertex="1" parent="1">
          <mxGeometry x="134" y="-308" width="210" height="26" as="geometry" />
        </mxCell>
        <mxCell id="Brwqg4Zs09OCB73X3CUI-132" style="edgeStyle=orthogonalEdgeStyle;rounded=0;orthogonalLoop=1;jettySize=auto;html=1;exitX=1;exitY=0.5;exitDx=0;exitDy=0;entryX=1;entryY=0;entryDx=0;entryDy=0;startArrow=none;startFill=0;dashed=1;" edge="1" parent="1" source="Brwqg4Zs09OCB73X3CUI-127" target="Brwqg4Zs09OCB73X3CUI-102">
          <mxGeometry relative="1" as="geometry" />
        </mxCell>
        <mxCell id="Brwqg4Zs09OCB73X3CUI-127" value="+FertilizerDTO: Read()" style="text;strokeColor=#000000;fillColor=none;align=left;verticalAlign=top;spacingLeft=4;spacingRight=4;overflow=hidden;rotatable=0;points=[[0,0.5],[1,0.5]];portConstraint=eastwest;" vertex="1" parent="1">
          <mxGeometry x="134" y="-282" width="210" height="26" as="geometry" />
        </mxCell>
        <mxCell id="Brwqg4Zs09OCB73X3CUI-131" style="edgeStyle=orthogonalEdgeStyle;rounded=0;orthogonalLoop=1;jettySize=auto;html=1;exitX=1;exitY=0.5;exitDx=0;exitDy=0;entryX=1;entryY=0.5;entryDx=0;entryDy=0;startArrow=diamondThin;startFill=1;" edge="1" parent="1" source="Brwqg4Zs09OCB73X3CUI-130" target="Brwqg4Zs09OCB73X3CUI-122">
          <mxGeometry relative="1" as="geometry" />
        </mxCell>
        <mxCell id="BgHJBI13iY1UevrT18Dg-63" value="GroundMapper" style="swimlane;fontStyle=0;childLayout=stackLayout;horizontal=1;startSize=26;fillColor=#dae8fc;horizontalStack=0;resizeParent=1;resizeParentMax=0;resizeLast=0;collapsible=1;marginBottom=0;strokeColor=#6c8ebf;" parent="1" vertex="1">
          <mxGeometry x="-40" y="59" width="340" height="84" as="geometry" />
        </mxCell>
        <mxCell id="BgHJBI13iY1UevrT18Dg-65" value="+GroundDTO: GroundToGroundDTO(Ground)" style="text;strokeColor=none;fillColor=none;align=left;verticalAlign=top;spacingLeft=4;spacingRight=4;overflow=hidden;rotatable=0;points=[[0,0.5],[1,0.5]];portConstraint=eastwest;" parent="BgHJBI13iY1UevrT18Dg-63" vertex="1">
          <mxGeometry y="26" width="340" height="26" as="geometry" />
        </mxCell>
        <mxCell id="BgHJBI13iY1UevrT18Dg-66" value="+Ground: GroundDTOToGround(GroundDTO)" style="text;strokeColor=#000000;fillColor=none;align=left;verticalAlign=top;spacingLeft=4;spacingRight=4;overflow=hidden;rotatable=0;points=[[0,0.5],[1,0.5]];portConstraint=eastwest;" parent="BgHJBI13iY1UevrT18Dg-63" vertex="1">
          <mxGeometry y="52" width="340" height="32" as="geometry" />
        </mxCell>
        <mxCell id="Brwqg4Zs09OCB73X3CUI-134" style="edgeStyle=orthogonalEdgeStyle;rounded=0;orthogonalLoop=1;jettySize=auto;html=1;exitX=0;exitY=0.5;exitDx=0;exitDy=0;entryX=0.25;entryY=0;entryDx=0;entryDy=0;startArrow=none;startFill=0;" edge="1" parent="1" source="Brwqg4Zs09OCB73X3CUI-130" target="Brwqg4Zs09OCB73X3CUI-74">
          <mxGeometry relative="1" as="geometry">
            <Array as="points">
              <mxPoint x="-230" y="-532" />
              <mxPoint x="-230" y="460" />
              <mxPoint x="300" y="460" />
            </Array>
          </mxGeometry>
        </mxCell>
        <mxCell id="Brwqg4Zs09OCB73X3CUI-135" style="edgeStyle=orthogonalEdgeStyle;rounded=0;orthogonalLoop=1;jettySize=auto;html=1;exitX=0.75;exitY=0;exitDx=0;exitDy=0;entryX=0;entryY=0.5;entryDx=0;entryDy=0;startArrow=none;startFill=0;" edge="1" parent="1" source="Brwqg4Zs09OCB73X3CUI-104" target="UJbusFLus1GOqgtkPEYr-10">
          <mxGeometry relative="1" as="geometry" />
        </mxCell>
        <mxCell id="Brwqg4Zs09OCB73X3CUI-104" value="IStandService" style="swimlane;fontStyle=0;childLayout=stackLayout;horizontal=1;startSize=26;fillColor=#ffe6cc;horizontalStack=0;resizeParent=1;resizeParentMax=0;resizeLast=0;collapsible=1;marginBottom=0;strokeColor=#d79b00;" vertex="1" collapsed="1" parent="1">
          <mxGeometry x="110" y="492" width="130" height="50" as="geometry">
            <mxRectangle x="560" y="330" width="140" height="52" as="alternateBounds" />
          </mxGeometry>
        </mxCell>
        <mxCell id="Brwqg4Zs09OCB73X3CUI-153" style="edgeStyle=orthogonalEdgeStyle;rounded=0;orthogonalLoop=1;jettySize=auto;html=1;exitX=0.75;exitY=0;exitDx=0;exitDy=0;entryX=0.5;entryY=1;entryDx=0;entryDy=0;startArrow=none;startFill=0;dashed=1;" edge="1" parent="1" source="Brwqg4Zs09OCB73X3CUI-136" target="Brwqg4Zs09OCB73X3CUI-104">
          <mxGeometry relative="1" as="geometry" />
        </mxCell>
        <mxCell id="Brwqg4Zs09OCB73X3CUI-136" value="StandService" style="swimlane;fontStyle=0;childLayout=stackLayout;horizontal=1;startSize=26;fillColor=#dae8fc;horizontalStack=0;resizeParent=1;resizeParentMax=0;resizeLast=0;collapsible=1;marginBottom=0;strokeColor=#6c8ebf;" vertex="1" parent="1">
          <mxGeometry x="-120" y="884" width="210" height="100" as="geometry" />
        </mxCell>
        <mxCell id="Brwqg4Zs09OCB73X3CUI-137" value="-UnitOfWork: unitofwork" style="text;strokeColor=#000000;fillColor=none;align=left;verticalAlign=top;spacingLeft=4;spacingRight=4;overflow=hidden;rotatable=0;points=[[0,0.5],[1,0.5]];portConstraint=eastwest;" vertex="1" parent="Brwqg4Zs09OCB73X3CUI-136">
          <mxGeometry y="26" width="210" height="26" as="geometry" />
        </mxCell>
        <mxCell id="Brwqg4Zs09OCB73X3CUI-138" value="-StandMapper: mapper" style="text;strokeColor=#000000;fillColor=none;align=left;verticalAlign=top;spacingLeft=4;spacingRight=4;overflow=hidden;rotatable=0;points=[[0,0.5],[1,0.5]];portConstraint=eastwest;" vertex="1" parent="Brwqg4Zs09OCB73X3CUI-136">
          <mxGeometry y="52" width="210" height="26" as="geometry" />
        </mxCell>
        <mxCell id="Brwqg4Zs09OCB73X3CUI-139" value="+StandDTO: GetEntity(id)" style="text;strokeColor=#000000;fillColor=none;align=left;verticalAlign=top;spacingLeft=4;spacingRight=4;overflow=hidden;rotatable=0;points=[[0,0.5],[1,0.5]];portConstraint=eastwest;" vertex="1" parent="Brwqg4Zs09OCB73X3CUI-136">
          <mxGeometry y="78" width="210" height="22" as="geometry" />
        </mxCell>
        <mxCell id="Brwqg4Zs09OCB73X3CUI-140" value="+void: Create (StandDTO obj)" style="text;strokeColor=#000000;fillColor=none;align=left;verticalAlign=top;spacingLeft=4;spacingRight=4;overflow=hidden;rotatable=0;points=[[0,0.5],[1,0.5]];portConstraint=eastwest;" vertex="1" parent="1">
          <mxGeometry x="-120" y="986" width="210" height="26" as="geometry" />
        </mxCell>
        <mxCell id="Brwqg4Zs09OCB73X3CUI-141" value="+void: Update (StandDTO obj)" style="text;strokeColor=#000000;fillColor=none;align=left;verticalAlign=top;spacingLeft=4;spacingRight=4;overflow=hidden;rotatable=0;points=[[0,0.5],[1,0.5]];portConstraint=eastwest;" vertex="1" parent="1">
          <mxGeometry x="-120" y="1012" width="210" height="26" as="geometry" />
        </mxCell>
        <mxCell id="Brwqg4Zs09OCB73X3CUI-142" value="+StandDTO: Read()" style="text;strokeColor=#000000;fillColor=none;align=left;verticalAlign=top;spacingLeft=4;spacingRight=4;overflow=hidden;rotatable=0;points=[[0,0.5],[1,0.5]];portConstraint=eastwest;" vertex="1" parent="1">
          <mxGeometry x="-120" y="1038" width="210" height="26" as="geometry" />
        </mxCell>
        <mxCell id="Brwqg4Zs09OCB73X3CUI-143" value="+void: Delete (int id)" style="text;strokeColor=#000000;fillColor=none;align=left;verticalAlign=top;spacingLeft=4;spacingRight=4;overflow=hidden;rotatable=0;points=[[0,0.5],[1,0.5]];portConstraint=eastwest;" vertex="1" parent="1">
          <mxGeometry x="-120" y="1066" width="210" height="26" as="geometry" />
        </mxCell>
        <mxCell id="Brwqg4Zs09OCB73X3CUI-83" value="Stand" style="swimlane;fontStyle=1;align=center;verticalAlign=top;childLayout=stackLayout;horizontal=1;startSize=26;horizontalStack=0;resizeParent=1;resizeParentMax=0;resizeLast=0;collapsible=1;marginBottom=0;fillColor=#dae8fc;strokeColor=#6c8ebf;" vertex="1" parent="1">
          <mxGeometry x="-170" y="1320" width="160" height="70" as="geometry" />
        </mxCell>
        <mxCell id="Brwqg4Zs09OCB73X3CUI-84" value="+string: Name&#xa;+int: Size" style="text;strokeColor=none;fillColor=none;align=left;verticalAlign=top;spacingLeft=4;spacingRight=4;overflow=hidden;rotatable=0;points=[[0,0.5],[1,0.5]];portConstraint=eastwest;" vertex="1" parent="Brwqg4Zs09OCB73X3CUI-83">
          <mxGeometry y="26" width="160" height="44" as="geometry" />
        </mxCell>
        <mxCell id="Brwqg4Zs09OCB73X3CUI-85" value="" style="line;strokeWidth=1;fillColor=none;align=left;verticalAlign=middle;spacingTop=-1;spacingLeft=3;spacingRight=3;rotatable=0;labelPosition=right;points=[];portConstraint=eastwest;" vertex="1" parent="Brwqg4Zs09OCB73X3CUI-83">
          <mxGeometry y="70" width="160" as="geometry" />
        </mxCell>
        <mxCell id="Brwqg4Zs09OCB73X3CUI-148" value="StandMapper" style="swimlane;fontStyle=0;childLayout=stackLayout;horizontal=1;startSize=26;fillColor=#dae8fc;horizontalStack=0;resizeParent=1;resizeParentMax=0;resizeLast=0;collapsible=1;marginBottom=0;strokeColor=#6c8ebf;" vertex="1" parent="1">
          <mxGeometry x="-270" y="1190" width="240" height="56" as="geometry" />
        </mxCell>
        <mxCell id="Brwqg4Zs09OCB73X3CUI-149" value="" style="text;strokeColor=#000000;fillColor=none;align=left;verticalAlign=top;spacingLeft=4;spacingRight=4;overflow=hidden;rotatable=0;points=[[0,0.5],[1,0.5]];portConstraint=eastwest;" vertex="1" parent="Brwqg4Zs09OCB73X3CUI-148">
          <mxGeometry y="26" width="240" height="4" as="geometry" />
        </mxCell>
        <mxCell id="Brwqg4Zs09OCB73X3CUI-150" value="+StandDTO: StandToStandDTO(Stand)" style="text;strokeColor=none;fillColor=none;align=left;verticalAlign=top;spacingLeft=4;spacingRight=4;overflow=hidden;rotatable=0;points=[[0,0.5],[1,0.5]];portConstraint=eastwest;" vertex="1" parent="Brwqg4Zs09OCB73X3CUI-148">
          <mxGeometry y="30" width="240" height="26" as="geometry" />
        </mxCell>
        <mxCell id="Brwqg4Zs09OCB73X3CUI-154" style="edgeStyle=orthogonalEdgeStyle;rounded=0;orthogonalLoop=1;jettySize=auto;html=1;exitX=1;exitY=0.5;exitDx=0;exitDy=0;entryX=0.829;entryY=-0.006;entryDx=0;entryDy=0;entryPerimeter=0;startArrow=none;startFill=0;" edge="1" parent="1" source="Brwqg4Zs09OCB73X3CUI-151" target="Brwqg4Zs09OCB73X3CUI-83">
          <mxGeometry relative="1" as="geometry" />
        </mxCell>
        <mxCell id="Brwqg4Zs09OCB73X3CUI-151" value="+Stand: StandDTOToStand(StandDTO)" style="text;strokeColor=#000000;fillColor=none;align=left;verticalAlign=top;spacingLeft=4;spacingRight=4;overflow=hidden;rotatable=0;points=[[0,0.5],[1,0.5]];portConstraint=eastwest;" vertex="1" parent="1">
          <mxGeometry x="-270" y="1246" width="240" height="32" as="geometry" />
        </mxCell>
        <mxCell id="Brwqg4Zs09OCB73X3CUI-152" style="edgeStyle=orthogonalEdgeStyle;rounded=0;orthogonalLoop=1;jettySize=auto;html=1;exitX=1;exitY=0.5;exitDx=0;exitDy=0;entryX=0;entryY=0.5;entryDx=0;entryDy=0;startArrow=diamond;startFill=1;" edge="1" parent="1" source="Brwqg4Zs09OCB73X3CUI-150" target="Brwqg4Zs09OCB73X3CUI-143">
          <mxGeometry relative="1" as="geometry" />
        </mxCell>
        <mxCell id="dRxuZMbDR-7vqP8RKUdO-10" value="MainWindow.xaml.cs" style="swimlane;fontStyle=0;childLayout=stackLayout;horizontal=1;startSize=26;fillColor=#dae8fc;horizontalStack=0;resizeParent=1;resizeParentMax=0;resizeLast=0;collapsible=1;marginBottom=0;strokeColor=#6c8ebf;" parent="1" vertex="1">
          <mxGeometry x="-1420" y="610" width="140" height="70" as="geometry" />
        </mxCell>
        <mxCell id="dRxuZMbDR-7vqP8RKUdO-11" value="void: AddFlower_Click&#xa;void: Check_Click" style="text;strokeColor=none;fillColor=none;align=left;verticalAlign=top;spacingLeft=4;spacingRight=4;overflow=hidden;rotatable=0;points=[[0,0.5],[1,0.5]];portConstraint=eastwest;" parent="dRxuZMbDR-7vqP8RKUdO-10" vertex="1">
          <mxGeometry y="26" width="140" height="44" as="geometry" />
        </mxCell>
        <mxCell id="dRxuZMbDR-7vqP8RKUdO-19" value="TextBox: NameTextBox" style="text;strokeColor=#000000;fillColor=none;align=left;verticalAlign=top;spacingLeft=4;spacingRight=4;overflow=hidden;rotatable=0;points=[[0,0.5],[1,0.5]];portConstraint=eastwest;" parent="1" vertex="1">
          <mxGeometry x="-1440" y="402" width="210" height="20" as="geometry" />
        </mxCell>
        <mxCell id="Brwqg4Zs09OCB73X3CUI-155" value="+ComboBox: PotList" style="text;strokeColor=#000000;fillColor=none;align=left;verticalAlign=top;spacingLeft=4;spacingRight=4;overflow=hidden;rotatable=0;points=[[0,0.5],[1,0.5]];portConstraint=eastwest;" vertex="1" parent="1">
          <mxGeometry x="-1440" y="336" width="210" height="22" as="geometry" />
        </mxCell>
        <mxCell id="Brwqg4Zs09OCB73X3CUI-156" value="+ComboBox: FertilizerList" style="text;strokeColor=#000000;fillColor=none;align=left;verticalAlign=top;spacingLeft=4;spacingRight=4;overflow=hidden;rotatable=0;points=[[0,0.5],[1,0.5]];portConstraint=eastwest;" vertex="1" parent="1">
          <mxGeometry x="-1440" y="358" width="210" height="22" as="geometry" />
        </mxCell>
        <mxCell id="Brwqg4Zs09OCB73X3CUI-157" value="+ComboBox: GroundList" style="text;strokeColor=#000000;fillColor=none;align=left;verticalAlign=top;spacingLeft=4;spacingRight=4;overflow=hidden;rotatable=0;points=[[0,0.5],[1,0.5]];portConstraint=eastwest;" vertex="1" parent="1">
          <mxGeometry x="-1440" y="380" width="210" height="22" as="geometry" />
        </mxCell>
        <mxCell id="Brwqg4Zs09OCB73X3CUI-159" value="Entities" style="text;html=1;align=center;verticalAlign=middle;resizable=0;points=[];autosize=1;" vertex="1" parent="1">
          <mxGeometry x="296" y="1503" width="50" height="20" as="geometry" />
        </mxCell>
        <mxCell id="Brwqg4Zs09OCB73X3CUI-160" value="Business logic layer" style="text;html=1;align=center;verticalAlign=middle;resizable=0;points=[];autosize=1;" vertex="1" parent="1">
          <mxGeometry x="162" y="-657" width="120" height="20" as="geometry" />
        </mxCell>
        <mxCell id="Brwqg4Zs09OCB73X3CUI-161" value="Data access layer" style="text;html=1;align=center;verticalAlign=middle;resizable=0;points=[];autosize=1;" vertex="1" parent="1">
          <mxGeometry x="985" y="-657" width="110" height="20" as="geometry" />
        </mxCell>
        <mxCell id="Brwqg4Zs09OCB73X3CUI-195" style="edgeStyle=orthogonalEdgeStyle;rounded=0;orthogonalLoop=1;jettySize=auto;html=1;exitX=1;exitY=0.5;exitDx=0;exitDy=0;entryX=0;entryY=0.25;entryDx=0;entryDy=0;startArrow=diamondThin;startFill=0;" edge="1" parent="1" source="Brwqg4Zs09OCB73X3CUI-162" target="Brwqg4Zs09OCB73X3CUI-179">
          <mxGeometry relative="1" as="geometry" />
        </mxCell>
        <mxCell id="Brwqg4Zs09OCB73X3CUI-162" value="+ObservableCollection&lt;GroundDTO&gt; (ListEntities)" style="text;strokeColor=#000000;fillColor=none;align=left;verticalAlign=top;spacingLeft=4;spacingRight=4;overflow=hidden;rotatable=0;points=[[0,0.5],[1,0.5]];portConstraint=eastwest;" vertex="1" parent="1">
          <mxGeometry x="-1140" y="111" width="320" height="20" as="geometry" />
        </mxCell>
        <mxCell id="Brwqg4Zs09OCB73X3CUI-163" value="+ObservableCollection&lt;StandDTO&gt; (ListEntities)" style="text;strokeColor=#000000;fillColor=none;align=left;verticalAlign=top;spacingLeft=4;spacingRight=4;overflow=hidden;rotatable=0;points=[[0,0.5],[1,0.5]];portConstraint=eastwest;" vertex="1" parent="1">
          <mxGeometry x="-1140" y="131" width="320" height="20" as="geometry" />
        </mxCell>
        <mxCell id="Brwqg4Zs09OCB73X3CUI-191" style="edgeStyle=orthogonalEdgeStyle;rounded=0;orthogonalLoop=1;jettySize=auto;html=1;exitX=1;exitY=0.5;exitDx=0;exitDy=0;startArrow=diamondThin;startFill=0;" edge="1" parent="1" source="Brwqg4Zs09OCB73X3CUI-164" target="Brwqg4Zs09OCB73X3CUI-171">
          <mxGeometry relative="1" as="geometry" />
        </mxCell>
        <mxCell id="Brwqg4Zs09OCB73X3CUI-164" value="+ObservableCollection&lt;RoomDTO&gt; (ListEntities)" style="text;strokeColor=#000000;fillColor=none;align=left;verticalAlign=top;spacingLeft=4;spacingRight=4;overflow=hidden;rotatable=0;points=[[0,0.5],[1,0.5]];portConstraint=eastwest;" vertex="1" parent="1">
          <mxGeometry x="-1140" y="151" width="320" height="20" as="geometry" />
        </mxCell>
        <mxCell id="Brwqg4Zs09OCB73X3CUI-194" style="edgeStyle=orthogonalEdgeStyle;rounded=0;orthogonalLoop=1;jettySize=auto;html=1;exitX=1;exitY=0.5;exitDx=0;exitDy=0;startArrow=diamondThin;startFill=0;" edge="1" parent="1" source="Brwqg4Zs09OCB73X3CUI-165" target="Brwqg4Zs09OCB73X3CUI-174">
          <mxGeometry relative="1" as="geometry" />
        </mxCell>
        <mxCell id="Brwqg4Zs09OCB73X3CUI-204" style="edgeStyle=orthogonalEdgeStyle;rounded=0;orthogonalLoop=1;jettySize=auto;html=1;exitX=0;exitY=0.5;exitDx=0;exitDy=0;entryX=0.01;entryY=-0.104;entryDx=0;entryDy=0;entryPerimeter=0;startArrow=diamondThin;startFill=1;" edge="1" parent="1" source="Brwqg4Zs09OCB73X3CUI-165" target="Brwqg4Zs09OCB73X3CUI-141">
          <mxGeometry relative="1" as="geometry" />
        </mxCell>
        <mxCell id="Brwqg4Zs09OCB73X3CUI-165" value="+GroundDTO: SelectedGround" style="text;strokeColor=#000000;fillColor=none;align=left;verticalAlign=top;spacingLeft=4;spacingRight=4;overflow=hidden;rotatable=0;points=[[0,0.5],[1,0.5]];portConstraint=eastwest;" vertex="1" parent="1">
          <mxGeometry x="-1140" y="191" width="320" height="22" as="geometry" />
        </mxCell>
        <mxCell id="Brwqg4Zs09OCB73X3CUI-192" style="edgeStyle=orthogonalEdgeStyle;rounded=0;orthogonalLoop=1;jettySize=auto;html=1;exitX=0;exitY=0.5;exitDx=0;exitDy=0;entryX=0.25;entryY=0;entryDx=0;entryDy=0;startArrow=diamondThin;startFill=0;" edge="1" parent="1" source="Brwqg4Zs09OCB73X3CUI-166" target="Brwqg4Zs09OCB73X3CUI-185">
          <mxGeometry relative="1" as="geometry" />
        </mxCell>
        <mxCell id="Brwqg4Zs09OCB73X3CUI-166" value="+RoomDTO: SelectedRoom" style="text;strokeColor=#000000;fillColor=none;align=left;verticalAlign=top;spacingLeft=4;spacingRight=4;overflow=hidden;rotatable=0;points=[[0,0.5],[1,0.5]];portConstraint=eastwest;" vertex="1" parent="1">
          <mxGeometry x="-1140" y="214" width="320" height="22" as="geometry" />
        </mxCell>
        <mxCell id="Brwqg4Zs09OCB73X3CUI-167" value="+StandDTO: SelectedStand" style="text;strokeColor=#000000;fillColor=none;align=left;verticalAlign=top;spacingLeft=4;spacingRight=4;overflow=hidden;rotatable=0;points=[[0,0.5],[1,0.5]];portConstraint=eastwest;" vertex="1" parent="1">
          <mxGeometry x="-1140" y="235" width="320" height="22" as="geometry" />
        </mxCell>
        <mxCell id="dRxuZMbDR-7vqP8RKUdO-30" value="+void: OnPropertyChanged (string PropertyName)" style="text;strokeColor=#000000;fillColor=none;align=left;verticalAlign=top;spacingLeft=4;spacingRight=4;overflow=hidden;rotatable=0;points=[[0,0.5],[1,0.5]];portConstraint=eastwest;" parent="1" vertex="1">
          <mxGeometry x="-610" y="385" width="290" height="20" as="geometry" />
        </mxCell>
        <mxCell id="Brwqg4Zs09OCB73X3CUI-198" style="edgeStyle=orthogonalEdgeStyle;rounded=0;orthogonalLoop=1;jettySize=auto;html=1;exitX=0;exitY=0.5;exitDx=0;exitDy=0;startArrow=diamondThin;startFill=0;" edge="1" parent="1" source="Brwqg4Zs09OCB73X3CUI-168" target="Brwqg4Zs09OCB73X3CUI-179">
          <mxGeometry relative="1" as="geometry" />
        </mxCell>
        <mxCell id="Brwqg4Zs09OCB73X3CUI-202" style="edgeStyle=orthogonalEdgeStyle;rounded=0;orthogonalLoop=1;jettySize=auto;html=1;exitX=1;exitY=0.5;exitDx=0;exitDy=0;entryX=0.75;entryY=0;entryDx=0;entryDy=0;startArrow=diamondThin;startFill=0;" edge="1" parent="1" source="Brwqg4Zs09OCB73X3CUI-168" target="Brwqg4Zs09OCB73X3CUI-188">
          <mxGeometry relative="1" as="geometry" />
        </mxCell>
        <mxCell id="Brwqg4Zs09OCB73X3CUI-168" value="+ObservableCollection&lt;StandDTO&gt;" style="text;strokeColor=#000000;fillColor=none;align=left;verticalAlign=top;spacingLeft=4;spacingRight=4;overflow=hidden;rotatable=0;points=[[0,0.5],[1,0.5]];portConstraint=eastwest;" vertex="1" parent="1">
          <mxGeometry x="-610" y="325" width="290" height="20" as="geometry" />
        </mxCell>
        <mxCell id="Brwqg4Zs09OCB73X3CUI-169" value="+ObservableCollection&lt;GroundDTO&gt;" style="text;strokeColor=#000000;fillColor=none;align=left;verticalAlign=top;spacingLeft=4;spacingRight=4;overflow=hidden;rotatable=0;points=[[0,0.5],[1,0.5]];portConstraint=eastwest;" vertex="1" parent="1">
          <mxGeometry x="-610" y="345" width="290" height="20" as="geometry" />
        </mxCell>
        <mxCell id="Brwqg4Zs09OCB73X3CUI-197" style="edgeStyle=orthogonalEdgeStyle;rounded=0;orthogonalLoop=1;jettySize=auto;html=1;exitX=0;exitY=0.5;exitDx=0;exitDy=0;entryX=0.75;entryY=0;entryDx=0;entryDy=0;startArrow=diamondThin;startFill=0;" edge="1" parent="1" source="Brwqg4Zs09OCB73X3CUI-170" target="Brwqg4Zs09OCB73X3CUI-171">
          <mxGeometry relative="1" as="geometry" />
        </mxCell>
        <mxCell id="Brwqg4Zs09OCB73X3CUI-201" style="edgeStyle=orthogonalEdgeStyle;rounded=0;orthogonalLoop=1;jettySize=auto;html=1;exitX=1;exitY=0.5;exitDx=0;exitDy=0;startArrow=diamondThin;startFill=0;" edge="1" parent="1" source="Brwqg4Zs09OCB73X3CUI-170" target="Brwqg4Zs09OCB73X3CUI-182">
          <mxGeometry relative="1" as="geometry">
            <Array as="points">
              <mxPoint x="-280" y="375" />
              <mxPoint x="-280" y="826" />
              <mxPoint x="-1390" y="826" />
            </Array>
          </mxGeometry>
        </mxCell>
        <mxCell id="Brwqg4Zs09OCB73X3CUI-170" value="+ObservableCollection&lt;RoomDTO&gt;" style="text;strokeColor=#000000;fillColor=none;align=left;verticalAlign=top;spacingLeft=4;spacingRight=4;overflow=hidden;rotatable=0;points=[[0,0.5],[1,0.5]];portConstraint=eastwest;" vertex="1" parent="1">
          <mxGeometry x="-610" y="365" width="290" height="20" as="geometry" />
        </mxCell>
        <mxCell id="Brwqg4Zs09OCB73X3CUI-174" value="GroundDTO" style="swimlane;fontStyle=1;align=center;verticalAlign=top;childLayout=stackLayout;horizontal=1;startSize=26;horizontalStack=0;resizeParent=1;resizeParentMax=0;resizeLast=0;collapsible=1;marginBottom=0;fillColor=#dae8fc;strokeColor=#6c8ebf;" vertex="1" parent="1">
          <mxGeometry x="-1015" y="1219" width="160" height="80" as="geometry" />
        </mxCell>
        <mxCell id="Brwqg4Zs09OCB73X3CUI-175" value="+string: Name&#xa;+int: Size&#xa;" style="text;strokeColor=none;fillColor=none;align=left;verticalAlign=top;spacingLeft=4;spacingRight=4;overflow=hidden;rotatable=0;points=[[0,0.5],[1,0.5]];portConstraint=eastwest;" vertex="1" parent="Brwqg4Zs09OCB73X3CUI-174">
          <mxGeometry y="26" width="160" height="54" as="geometry" />
        </mxCell>
        <mxCell id="Brwqg4Zs09OCB73X3CUI-176" value="" style="line;strokeWidth=1;fillColor=none;align=left;verticalAlign=middle;spacingTop=-1;spacingLeft=3;spacingRight=3;rotatable=0;labelPosition=right;points=[];portConstraint=eastwest;" vertex="1" parent="Brwqg4Zs09OCB73X3CUI-174">
          <mxGeometry y="80" width="160" as="geometry" />
        </mxCell>
        <mxCell id="Brwqg4Zs09OCB73X3CUI-178" value="Models" style="text;html=1;align=center;verticalAlign=middle;resizable=0;points=[];autosize=1;" vertex="1" parent="1">
          <mxGeometry x="-833" y="1365" width="50" height="20" as="geometry" />
        </mxCell>
        <mxCell id="Brwqg4Zs09OCB73X3CUI-185" value="FlowerDTO" style="swimlane;fontStyle=1;align=center;verticalAlign=top;childLayout=stackLayout;horizontal=1;startSize=26;horizontalStack=0;resizeParent=1;resizeParentMax=0;resizeLast=0;collapsible=1;marginBottom=0;fillColor=#dae8fc;strokeColor=#6c8ebf;" vertex="1" parent="1">
          <mxGeometry x="-1250" y="1222" width="160" height="98" as="geometry" />
        </mxCell>
        <mxCell id="Brwqg4Zs09OCB73X3CUI-186" value="+string: Name&#xa;+int: Tempetature&#xa;+string: Conditions&#xa;+int: Price" style="text;strokeColor=none;fillColor=none;align=left;verticalAlign=top;spacingLeft=4;spacingRight=4;overflow=hidden;rotatable=0;points=[[0,0.5],[1,0.5]];portConstraint=eastwest;" vertex="1" parent="Brwqg4Zs09OCB73X3CUI-185">
          <mxGeometry y="26" width="160" height="64" as="geometry" />
        </mxCell>
        <mxCell id="Brwqg4Zs09OCB73X3CUI-187" value="" style="line;strokeWidth=1;fillColor=none;align=left;verticalAlign=middle;spacingTop=-1;spacingLeft=3;spacingRight=3;rotatable=0;labelPosition=right;points=[];portConstraint=eastwest;" vertex="1" parent="Brwqg4Zs09OCB73X3CUI-185">
          <mxGeometry y="90" width="160" height="8" as="geometry" />
        </mxCell>
        <mxCell id="Brwqg4Zs09OCB73X3CUI-179" value="FertilizerDTO" style="swimlane;fontStyle=1;align=center;verticalAlign=top;childLayout=stackLayout;horizontal=1;startSize=26;horizontalStack=0;resizeParent=1;resizeParentMax=0;resizeLast=0;collapsible=1;marginBottom=0;fillColor=#dae8fc;strokeColor=#6c8ebf;" vertex="1" parent="1">
          <mxGeometry x="-560" y="1206" width="160" height="98" as="geometry" />
        </mxCell>
        <mxCell id="Brwqg4Zs09OCB73X3CUI-180" value="+string: Name&#xa;+int: Size&#xa;+Date: ExpirationDate" style="text;strokeColor=none;fillColor=none;align=left;verticalAlign=top;spacingLeft=4;spacingRight=4;overflow=hidden;rotatable=0;points=[[0,0.5],[1,0.5]];portConstraint=eastwest;" vertex="1" parent="Brwqg4Zs09OCB73X3CUI-179">
          <mxGeometry y="26" width="160" height="64" as="geometry" />
        </mxCell>
        <mxCell id="Brwqg4Zs09OCB73X3CUI-181" value="" style="line;strokeWidth=1;fillColor=none;align=left;verticalAlign=middle;spacingTop=-1;spacingLeft=3;spacingRight=3;rotatable=0;labelPosition=right;points=[];portConstraint=eastwest;" vertex="1" parent="Brwqg4Zs09OCB73X3CUI-179">
          <mxGeometry y="90" width="160" height="8" as="geometry" />
        </mxCell>
        <mxCell id="Brwqg4Zs09OCB73X3CUI-171" value="StandDTO" style="swimlane;fontStyle=1;align=center;verticalAlign=top;childLayout=stackLayout;horizontal=1;startSize=26;horizontalStack=0;resizeParent=1;resizeParentMax=0;resizeLast=0;collapsible=1;marginBottom=0;fillColor=#dae8fc;strokeColor=#6c8ebf;" vertex="1" parent="1">
          <mxGeometry x="-860" y="1106" width="160" height="70" as="geometry" />
        </mxCell>
        <mxCell id="Brwqg4Zs09OCB73X3CUI-172" value="+string: Name&#xa;+int: Size" style="text;strokeColor=none;fillColor=none;align=left;verticalAlign=top;spacingLeft=4;spacingRight=4;overflow=hidden;rotatable=0;points=[[0,0.5],[1,0.5]];portConstraint=eastwest;" vertex="1" parent="Brwqg4Zs09OCB73X3CUI-171">
          <mxGeometry y="26" width="160" height="44" as="geometry" />
        </mxCell>
        <mxCell id="Brwqg4Zs09OCB73X3CUI-173" value="" style="line;strokeWidth=1;fillColor=none;align=left;verticalAlign=middle;spacingTop=-1;spacingLeft=3;spacingRight=3;rotatable=0;labelPosition=right;points=[];portConstraint=eastwest;" vertex="1" parent="Brwqg4Zs09OCB73X3CUI-171">
          <mxGeometry y="70" width="160" as="geometry" />
        </mxCell>
        <mxCell id="Brwqg4Zs09OCB73X3CUI-182" value="PotDTO" style="swimlane;fontStyle=1;align=center;verticalAlign=top;childLayout=stackLayout;horizontal=1;startSize=26;horizontalStack=0;resizeParent=1;resizeParentMax=0;resizeLast=0;collapsible=1;marginBottom=0;fillColor=#dae8fc;strokeColor=#6c8ebf;" vertex="1" parent="1">
          <mxGeometry x="-1470" y="1268" width="160" height="78" as="geometry" />
        </mxCell>
        <mxCell id="Brwqg4Zs09OCB73X3CUI-183" value="+string: Name&#xa;+int: Size" style="text;strokeColor=none;fillColor=none;align=left;verticalAlign=top;spacingLeft=4;spacingRight=4;overflow=hidden;rotatable=0;points=[[0,0.5],[1,0.5]];portConstraint=eastwest;" vertex="1" parent="Brwqg4Zs09OCB73X3CUI-182">
          <mxGeometry y="26" width="160" height="44" as="geometry" />
        </mxCell>
        <mxCell id="Brwqg4Zs09OCB73X3CUI-184" value="" style="line;strokeWidth=1;fillColor=none;align=left;verticalAlign=middle;spacingTop=-1;spacingLeft=3;spacingRight=3;rotatable=0;labelPosition=right;points=[];portConstraint=eastwest;" vertex="1" parent="Brwqg4Zs09OCB73X3CUI-182">
          <mxGeometry y="70" width="160" height="8" as="geometry" />
        </mxCell>
        <mxCell id="Brwqg4Zs09OCB73X3CUI-188" value="RoomDTO" style="swimlane;fontStyle=1;align=center;verticalAlign=top;childLayout=stackLayout;horizontal=1;startSize=26;horizontalStack=0;resizeParent=1;resizeParentMax=0;resizeLast=0;collapsible=1;marginBottom=0;fillColor=#dae8fc;strokeColor=#6c8ebf;" vertex="1" parent="1">
          <mxGeometry x="-1770" y="1139" width="160" height="80" as="geometry" />
        </mxCell>
        <mxCell id="Brwqg4Zs09OCB73X3CUI-189" value="+string: Name&#xa;+int: Size&#xa;+string: Conditions" style="text;strokeColor=none;fillColor=none;align=left;verticalAlign=top;spacingLeft=4;spacingRight=4;overflow=hidden;rotatable=0;points=[[0,0.5],[1,0.5]];portConstraint=eastwest;" vertex="1" parent="Brwqg4Zs09OCB73X3CUI-188">
          <mxGeometry y="26" width="160" height="54" as="geometry" />
        </mxCell>
        <mxCell id="Brwqg4Zs09OCB73X3CUI-190" value="" style="line;strokeWidth=1;fillColor=none;align=left;verticalAlign=middle;spacingTop=-1;spacingLeft=3;spacingRight=3;rotatable=0;labelPosition=right;points=[];portConstraint=eastwest;" vertex="1" parent="Brwqg4Zs09OCB73X3CUI-188">
          <mxGeometry y="80" width="160" as="geometry" />
        </mxCell>
        <mxCell id="Brwqg4Zs09OCB73X3CUI-199" style="edgeStyle=orthogonalEdgeStyle;rounded=0;orthogonalLoop=1;jettySize=auto;html=1;exitX=0;exitY=0.5;exitDx=0;exitDy=0;entryX=0.25;entryY=0;entryDx=0;entryDy=0;startArrow=diamondThin;startFill=0;" edge="1" parent="1" source="dRxuZMbDR-7vqP8RKUdO-28" target="Brwqg4Zs09OCB73X3CUI-174">
          <mxGeometry relative="1" as="geometry" />
        </mxCell>
        <mxCell id="Brwqg4Zs09OCB73X3CUI-200" style="edgeStyle=orthogonalEdgeStyle;rounded=0;orthogonalLoop=1;jettySize=auto;html=1;exitX=0;exitY=0.5;exitDx=0;exitDy=0;entryX=0.75;entryY=0;entryDx=0;entryDy=0;startArrow=diamondThin;startFill=0;" edge="1" parent="1" source="dRxuZMbDR-7vqP8RKUdO-29" target="Brwqg4Zs09OCB73X3CUI-185">
          <mxGeometry relative="1" as="geometry" />
        </mxCell>
      </root>
    </mxGraphModel>
  </diagram>
</mxfile>
